<?xml version="1.0" encoding="utf-8"?>
<!-- Generator: Adobe Illustrator 16.0.0, SVG Export Plug-In . SVG Version: 6.00 Build 0)  -->
<!DOCTYPE svg PUBLIC "-//W3C//DTD SVG 1.0//EN" "http://www.w3.org/TR/2001/REC-SVG-20010904/DTD/svg10.dtd">
<svg version="1.0" id="Layer_1" xmlns="http://www.w3.org/2000/svg" xmlns:xlink="http://www.w3.org/1999/xlink" x="0px" y="0px"
	 width="852.112px" height="253.521px" viewBox="0 0 852.112 253.521" enable-background="new 0 0 852.112 253.521"
	 xml:space="preserve">
<g>
	<path d="M177.208,53.087c-3.652,0.223-7.48,1.215-11.443,2.973c-4.889,2.133-8.525,4.869-10.91,8.254
		c-1.154,1.666-1.986,3.219-2.467,4.664c-0.365,1.029-0.502,2.373-0.365,4.051c0.117,2.736,1.191,4.458,3.232,5.179
		c1.463,0.531,2.926,0.795,4.34,0.795c0.238,0,0.332-0.031,0.27-0.105c-0.184-0.09-0.455-0.277-0.816-0.584
		c-0.682-0.52-1.012-1.172-1.012-1.927c0.428-1.295,1.408-2.25,2.926-2.846c0.789-0.35,2.217-0.529,4.293-0.529
		c1.211-0.063,2.197,0.285,2.961,1.063c0.766,0.785,1.018,1.555,0.777,2.313c-0.436,1.337-1.607,2.487-3.516,3.454
		c-1.926,0.977-3.938,1.448-6.068,1.448c-2.855,0-5.057-0.472-6.57-1.409c-3.289-2.086-4.943-4.849-4.943-8.272
		c0-2.236,0.639-4.631,1.922-7.172c2.197-4.412,6.488-8.166,12.875-11.287c3.959-1.929,7.623-2.899,10.953-2.899L177.208,53.087z"/>
	<path d="M152.984,79.629c-3.174-2.012-4.791-4.718-4.791-8.022c0-2.182,0.637-4.564,1.887-7.051
		c2.146-4.32,6.436-8.082,12.746-11.145c3.889-1.917,7.541-2.872,10.82-2.872c0,0,2.197,1.788,2.904,2.39
		c-3.504,0.279-7.152,1.229-10.902,2.859c-4.92,2.145-8.625,4.963-11.025,8.355c-1.172,1.701-2.004,3.283-2.514,4.734
		c-0.275,0.807-0.424,1.807-0.424,2.951c0,0.379,0.016,0.791,0.049,1.225c0.135,2.832,1.281,4.647,3.42,5.417
		c1.502,0.531,2.988,0.807,4.441,0.807c0.129,0,0.348-0.143,0.375-0.268c0.035-0.109,0.115-0.313,0-0.379l-0.732-0.523
		c-0.617-0.49-0.916-1.047-0.916-1.722c0.381-1.131,1.285-2.012,2.74-2.59c0.76-0.332,2.172-0.5,4.193-0.5
		c1.15-0.064,2.047,0.25,2.754,0.967c0.695,0.709,0.922,1.373,0.715,2.035c-0.406,1.257-1.539,2.356-3.371,3.294
		c-1.877,0.943-3.879,1.42-5.943,1.42C156.617,81.012,154.447,80.549,152.984,79.629 M162.564,52.896
		c-6.416,3.135-10.789,6.98-12.998,11.41c-1.299,2.576-1.945,5.021-1.945,7.301c0,3.51,1.699,6.372,5.053,8.499
		c1.563,0.969,3.834,1.478,6.736,1.478c2.166,0,4.244-0.509,6.195-1.499c1.977-0.994,3.215-2.197,3.658-3.606
		c0.275-0.869,0-1.738-0.834-2.602c-0.832-0.822-1.893-1.211-3.193-1.131h-0.012c-2.111,0-3.551,0.16-4.383,0.535
		c-1.588,0.631-2.629,1.648-3.076,3.018v0.043c0,0.909,0.377,1.628,1.102,2.202c0,0,0.076,0.045,0.092,0.057
		c-1.193-0.057-2.389-0.217-3.617-0.656c-1.924-0.693-2.918-2.308-3.041-4.933c-0.031-0.418-0.043-0.809-0.043-1.182
		c0-1.092,0.141-2.025,0.404-2.754c0.471-1.42,1.295-2.965,2.428-4.605c2.336-3.316,5.973-6.068,10.789-8.16
		c3.92-1.725,7.74-2.709,11.35-2.938c0.115,0,0.209-0.076,0.256-0.195c0.02-0.029,0.02-0.057,0.02-0.09
		c0-0.072-0.043-0.152-0.113-0.207l-3.555-2.853C170.277,49.963,166.55,50.949,162.564,52.896"/>
	<path d="M197.242,72.966l6.811-19.891H182.82c3.166,1.959,5.379,3.424,6.656,4.471c0.486,0.412,1.02,1.096,1.59,2.006
		c0.58,0.916,0.875,1.635,0.875,2.17c0.059,0.648,0.117,1.662,0.18,3.049c0,0.723-0.238,1.543-0.709,2.461
		c0.297,0.301,1.129,0.992,2.463,2.064C195.033,70.173,196.15,71.392,197.242,72.966 M215.869,53.075h-7.475l-9.951,29.107
		l-1.461-1.31c-0.059-0.451-0.152-1.299-0.279-2.551c-0.367-2.069-1.215-3.54-2.545-4.407c-2.684-1.811-4.705-2.859-6.043-3.168
		l0.1,0.059c0,0.219-1.088,0.775-3.281,1.648c-1.777,0.686-3.594,1.023-5.484,1.023c-2.551,0-4.299-0.4-5.213-1.195
		c-0.549-0.529-0.883-0.912-0.994-1.15c-0.029,0-0.029-0.457,0-1.412c-0.07-1.398,1.154-2.869,3.641-4.426
		c1.57-0.939,4.08-1.424,7.475-1.424c1.941,0,3.014,0.172,3.193,0.512c0.189-0.6,0.277-1.191,0.277-1.773
		c0-1.699-1.041-3.09-3.102-4.16c-0.973-0.49-2.805-0.961-5.48-1.422c-2.676-0.451-4.096-0.809-4.281-1.078
		c-0.549-0.26-1.209-0.801-2.012-1.586l-0.541-1.268l-3.547-2.847h43.361L215.869,53.075z"/>
	<path d="M173.031,71.337 M212.226,50.539c0,0,1.99,1.569,2.842,2.241h-6.674c-0.133,0-0.242,0.092-0.281,0.195
		c0,0-9.523,27.905-9.805,28.709c-0.393-0.348-1.119-1.001-1.131-1.015c0,0,0.012-0.031,0.012-0.082
		c0-0.422-0.203-2.287-0.203-2.287c-0.377-2.163-1.287-3.72-2.68-4.62c-2.691-1.814-4.758-2.885-6.115-3.201
		c-0.119-0.031-0.178,0.145-0.244,0.232c-0.051,0.084-0.451,0.42-3.135,1.469c-1.715,0.676-3.523,1.01-5.363,1.01
		c-2.48,0-4.158-0.383-5.018-1.115l-0.938-1.055l0.035-1.297c0-0.027-0.008-0.061-0.008-0.084c0-1.283,1.182-2.648,3.52-4.111
		c1.529-0.908,3.982-1.385,7.316-1.385c2.645,0,2.922,0.34,2.939,0.367c0.066,0.109,0.191,0.184,0.305,0.162
		c0.107-0.029,0.209-0.08,0.227-0.211l0.279-1.854c0-1.813-1.098-3.287-3.252-4.398c-1.008-0.525-2.824-0.988-5.559-1.469
		c-3.496-0.592-4.025-0.883-4.1-0.971c-0.098-0.082-2.031-1.613-2.031-1.613l-0.484-1.182c0,0-2.17-1.749-3.023-2.437H212.226z
		 M168.601,50.152c-0.023,0.041-0.023,0.07-0.023,0.096c0,0.08,0.031,0.168,0.094,0.217l3.566,2.845l0.461,1.146
		c0.053,0.094,2.141,1.754,2.141,1.754c0.012,0.068,0.232,0.387,4.359,1.105c2.641,0.441,4.457,0.914,5.391,1.389
		c1.98,1.016,2.949,2.303,2.949,3.904c0,0-0.141,0.844-0.195,1.311c-0.443-0.186-1.24-0.332-2.986-0.332
		c-3.439,0-6.006,0.492-7.627,1.465c-2.602,1.629-3.848,3.164-3.785,4.689c0-0.021,0.086,1.596,0.086,1.596l1.01,1.152
		c0.982,0.852,2.748,1.268,5.408,1.268c1.918,0,3.799-0.361,5.578-1.051c2.299-0.902,3.021-1.322,3.285-1.574
		c1.295,0.352,3.174,1.326,5.676,3.016c1.271,0.818,2.076,2.244,2.422,4.233c0,0.002,0.289,2.527,0.289,2.527l1.547,1.481
		c0.074,0.063,0.168,0.09,0.273,0.063c0.08-0.023,0.154-0.092,0.186-0.176c0,0,9.768-28.539,9.895-28.92h7.27
		c0.129,0,0.238-0.07,0.289-0.201c0.008-0.027,0.008-0.049,0.008-0.08c0-0.1-0.043-0.18-0.102-0.234l-3.66-2.821l-43.539-0.057
		C168.73,49.963,168.625,50.043,168.601,50.152"/>
	<path d="M203.644,53.356c-0.234,0.695-6.223,18.215-6.516,19.063c-1.006-1.35-2.029-2.545-3.082-3.352c0,0-2.012-1.686-2.324-1.938
		c0.111-0.387,0.686-2.359,0.686-2.359c0-0.01-0.178-3.064-0.178-3.064c0-0.566-0.313-1.338-0.924-2.305l-1.65-2.07
		c0-0.008-4.174-2.807-5.902-3.975H203.644z M182.82,52.78c-0.119,0-0.221,0.092-0.264,0.211c-0.016,0.023-0.016,0.057-0.016,0.084
		c0,0.086,0.059,0.178,0.131,0.234l6.625,4.447c0,0.012,1.537,1.932,1.537,1.932c0.541,0.879,0.813,1.566,0.813,2.033
		c0.008,0.025,0.188,3.053,0.188,3.053l-0.682,2.328c-0.008,0.037-0.02,0.088-0.02,0.15c0,0.049,0.012,0.129,0.074,0.174l2.488,2.09
		c1.129,0.855,2.234,2.072,3.314,3.607c0.063,0.086,0.168,0.125,0.271,0.121c0.102-0.021,0.211-0.088,0.234-0.191l6.795-19.898
		c0.039-0.08,0.031-0.18-0.037-0.26c-0.041-0.063-0.135-0.115-0.221-0.115H182.82z"/>
	<path d="M236.847,53.048c-3.955,0.561-7.855,1.713-11.697,3.416c-3.848,1.711-6.703,3.639-8.605,5.764
		c-1.088,1.213-1.951,2.416-2.551,3.596c-1.768,3.164-2.648,5.514-2.648,7.072c0,2.516,1.672,4.526,5.033,6.048
		c0.381,0.164,0.98,0.238,1.848,0.238c0.844,0,1.252-0.074,1.189-0.238c-0.357,0-0.75-0.334-1.189-1
		c-0.42-0.666-0.635-1.179-0.635-1.526c0.137-1.383,1.467-2.471,4.018-3.277c0.961-0.305,1.871-0.463,2.725-0.463
		c1.084,0,1.869,0.209,2.367,0.629c1.32,0.471,2.004,1.191,2.004,2.168c0,1.551-1.193,2.95-3.574,4.155
		c-1.816,0.996-3.959,1.494-6.395,1.494c-2.867,0-4.986-0.459-6.402-1.363c-3.279-2.059-4.92-4.802-4.92-8.218
		c0-6.5,4.936-12.652,14.838-18.467h-13.789l-3.563-2.827h28.482L236.847,53.048z"/>
	<path d="M219.048,79.045v-0.051c0-0.023,0.021-0.018,0.033-0.033c0.117,0.041,0.225,0.273,0.334,0.273
		C219.261,79.234,219.054,79.188,219.048,79.045 M233.382,50.539c0,0,2.182,1.788,2.852,2.353
		c-3.783,0.592-7.549,1.693-11.197,3.318c-3.865,1.713-6.795,3.682-8.709,5.838l-2.594,3.652c-1.793,3.217-2.668,5.58-2.668,7.195
		c0,2.629,1.746,4.739,5.211,6.313l1.949,0.256c1.021,0,1.283-0.098,1.42-0.283c0.059-0.092,0.059-0.238,0.027-0.33
		c-0.051-0.092-0.164-0.182-0.258-0.182c-0.148,0-0.455-0.113-0.926-0.877l-0.598-1.376c0.102-1.211,1.383-2.234,3.803-2.998
		l2.639-0.453c1.006,0,1.746,0.178,2.174,0.559c1.307,0.461,1.908,1.092,1.908,1.949c0,1.436-1.146,2.757-3.414,3.911
		c-1.789,0.963-3.887,1.447-6.266,1.447c-2.785,0-4.893-0.439-6.227-1.307c-3.205-1.998-4.816-4.685-4.816-7.983
		c0-6.365,4.936-12.494,14.691-18.232c0.115-0.057,0.166-0.195,0.141-0.318c-0.033-0.111-0.15-0.211-0.273-0.211h-13.789
		c0,0-1.951-1.581-2.768-2.241H233.382z M204.628,50.152c-0.016,0.041-0.016,0.07-0.016,0.096c0,0.08,0.035,0.168,0.102,0.225
		l3.57,2.823c0,0,11.463,0.045,13.061,0.053c-9.393,5.699-14.223,11.813-14.223,18.193c0,3.516,1.711,6.353,5.059,8.452
		c1.436,0.932,3.633,1.419,6.555,1.419c2.473,0,4.684-0.532,6.537-1.53c2.451-1.264,3.715-2.742,3.715-4.409
		c0-1.119-0.75-1.934-2.205-2.42c-0.443-0.42-1.271-0.656-2.449-0.656l-2.813,0.477c-2.648,0.842-4.076,2.02-4.209,3.518
		c0,0.025,0.682,1.704,0.682,1.704c0.318,0.504,0.625,0.574,0.936,0.742c-0.303,0.02-0.703,0.059-0.703,0.059l-1.727-0.205
		c-3.229-1.459-4.877-3.413-4.877-5.796c0-1.496,0.887-3.828,2.621-6.936c0-0.008,2.523-3.539,2.523-3.539
		c1.855-2.098,4.723-4.02,8.49-5.689c3.809-1.689,7.725-2.84,11.639-3.422c0.107-0.014,0.201-0.084,0.244-0.195
		c0.023-0.1-0.02-0.223-0.105-0.281l-3.473-2.806L204.9,49.963C204.781,49.963,204.664,50.043,204.628,50.152"/>
	<path d="M271.966,53.015h-30.457l-6.439,19.09c-0.109,0.205-0.15,0.395-0.15,0.572c0,0.885,0.965,1.314,2.928,1.314
		c3.119,0,7.332-1.594,12.645-4.801c1.773-1.068,2.998-2.232,3.668-3.477h-1.373c-1.322,0-2.496-0.234-3.463-0.688
		c-0.967-0.455-1.465-1.055-1.465-1.822c0-0.557,0.219-1.117,0.637-1.654c1.533-1.936,3.875-2.895,7.043-2.895
		c2.674,0,4.525,0.834,5.561,2.49c0.557,0.984,0.586,2.076,0.09,3.289c-1.334,3.297-3.801,5.881-7.395,7.768
		c-6.928,3.662-11.939,5.499-15.047,5.499c-2.078,0-3.631-0.238-4.656-0.735c-1.895-0.912-2.982-2.35-3.275-4.309
		c-0.061-0.494,0.293-1.852,1.07-4.037l5.289-15.605h-7.215l-2.734-2.821h34.332c0.178-0.611,0.389-1.148,0.637-1.615
		c0.059-0.906-0.582-1.594-1.91-2.049c-1.104-0.377-2.41-0.516-3.936-0.408c-2.246,0-5.285,0.123-9.139,0.355h-3.264
		c-4.453,0-7.803-0.75-10.051-2.264c-1.35-0.906-2.01-1.895-2.01-2.955c0-1.469,0.848-2.721,2.543-3.727
		c0.133-0.154,0.49-0.313,1.104-0.459c0.611-0.146,0.947-0.189,1.008-0.121c0,0.268-0.059,0.615-0.17,1.047
		c-0.807,0.459-1.283,0.955-1.451,1.496c-0.49,1.412,0.605,2.412,3.27,2.941c1.164,0.23,2.16,0.336,3.008,0.291
		c2.912-0.199,4.59-0.301,5.006-0.301c-0.184,0,1.189-0.061,4.088-0.188c1.824-0.053,3.613-0.066,5.367-0.021
		c3.166,0.113,5.465,0.488,6.92,1.123c2.301,1.025,3.641,2.25,4.004,3.68c0.172,0.834-0.045,1.824-0.637,2.99l2.463,0.184
		L271.966,53.015z"/>
	<path d="M243.947,46.186c-4.379,0-7.709-0.732-9.898-2.199c-1.248-0.846-1.883-1.766-1.883-2.729c0-1.357,0.816-2.527,2.43-3.484
		c0.068-0.074,1.016-0.428,1.016-0.428s0.588-0.105,0.729-0.127c-0.141,0.088-0.25,0.701-0.25,0.701
		c-0.73,0.336-1.252,0.879-1.443,1.486l0.109,1.592c0.455,0.793,1.572,1.352,3.387,1.717l3.059,0.281l5.002-0.291l4.1-0.178
		l5.352-0.033c3.1,0.119,5.391,0.49,6.803,1.111c2.205,0.975,3.496,2.148,3.838,3.484c0.039,0.16,0.055,0.336,0.055,0.529
		c0,0.645-0.217,1.408-0.656,2.264c-0.039,0.041-0.047,0.08-0.047,0.127c0,0.051,0.023,0.102,0.047,0.143
		c0.041,0.084,0.131,0.129,0.229,0.146l2.467,0.166c0,0,1.963,1.587,2.791,2.257h-29.67c-0.117,0-0.223,0.076-0.266,0.207
		l-6.453,19.076c0.02-0.029-0.16,0.672-0.16,0.672c0,1.063,1.082,1.596,3.217,1.596c3.17,0,7.473-1.623,12.793-4.848
		c1.809-1.078,3.08-2.285,3.764-3.58c0.059-0.086,0.043-0.191,0-0.281c-0.045-0.096-0.15-0.141-0.244-0.141h-1.373
		c-1.287,0-2.42-0.219-3.344-0.652c-0.871-0.402-1.289-0.926-1.289-1.566l0.572-1.482c1.463-1.846,3.754-2.787,6.813-2.787
		c2.555,0,4.34,0.785,5.318,2.352c0.498,0.902,0.521,1.912,0.066,3.043c-1.307,3.203-3.74,5.77-7.254,7.623
		c-6.857,3.639-11.891,5.47-14.922,5.47c-2.02,0-3.553-0.234-4.541-0.706c-1.803-0.873-2.83-2.219-3.121-4.115
		c-0.027-0.291,0.123-1.217,1.064-3.885l5.301-15.629c0.02-0.072,0.012-0.158-0.039-0.254c-0.055-0.057-0.145-0.111-0.236-0.111
		h-7.215c0,0-1.486-1.599-2.084-2.257h33.682c0.113,0,0.236-0.092,0.268-0.203l0.615-1.545c0-0.074,0.016-0.148,0.016-0.219
		c0-1.043-0.717-1.77-2.076-2.242c-1.137-0.379-2.494-0.512-4.059-0.408l-9.121,0.338H243.947z M235.468,36.803l-1.262,0.543
		c-1.711,1.006-2.609,2.34-2.609,3.912c0,1.158,0.721,2.225,2.131,3.184c2.295,1.545,5.719,2.326,10.219,2.326h3.264l9.139-0.357
		c1.502-0.104,2.785,0.021,3.832,0.385c1.158,0.389,1.734,0.945,1.734,1.676c0,0.027-0.012,0.059-0.012,0.092
		c-0.008,0-0.428,1.043-0.545,1.344h-34.133c-0.113,0-0.225,0.057-0.266,0.168c-0.023,0.037-0.029,0.072-0.029,0.119
		c0,0.061,0.029,0.135,0.09,0.18l2.736,2.831c0,0,6.309,0.082,7.021,0.082c-0.238,0.699-5.162,15.242-5.162,15.242
		c-0.93,2.629-1.107,3.566-1.107,3.99c0,0.074,0.008,0.131,0.016,0.17c0.307,2.059,1.479,3.586,3.449,4.522
		c1.078,0.518,2.641,0.775,4.773,0.775c3.129,0,8.24-1.862,15.191-5.532c3.633-1.912,6.16-4.586,7.521-7.918
		c0.514-1.283,0.475-2.463-0.111-3.52c-1.1-1.76-3.043-2.65-5.811-2.65c-3.246,0-5.695,1.014-7.264,3.02l-0.703,1.818
		c0,0.875,0.557,1.574,1.621,2.09c1.008,0.465,2.225,0.686,3.594,0.686h0.797c-0.684,1.055-1.723,2.061-3.234,2.959
		c-5.244,3.176-9.461,4.777-12.502,4.777c-1.746,0-2.641-0.348-2.641-1.039l0.109-0.469c0,0,6.27-18.537,6.41-18.92h30.24
		c0.129,0,0.229-0.08,0.264-0.182c0.008-0.031,0.012-0.074,0.012-0.092c0-0.086-0.023-0.182-0.098-0.234l-3.563-2.817
		c0,0-1.75-0.154-2.273-0.207c0.35-0.773,0.613-1.512,0.613-2.145c0-0.23-0.016-0.449-0.063-0.652
		c-0.377-1.514-1.801-2.824-4.17-3.875c-1.5-0.648-3.799-1.035-7.016-1.146l-5.391,0.027c-2.93,0.119-3.852,0.15-4.174,0.256
		c0.047-0.021,0.059-0.076,0.094-0.076l-5.025,0.311l-2.928-0.297c-1.611-0.326-2.631-0.811-3-1.438l-0.059-1.135
		c0.146-0.475,0.588-0.926,1.33-1.352c0.125-0.17,0.313-1.283,0.313-1.283C236.599,36.588,236.308,36.588,235.468,36.803"/>
	<path d="M224.609,78.83c0.73-0.045,2.469-0.023,5.199,0.07c3.229,0.145,5.002,0.234,5.297,0.281
		c1.342,0.072,2.816,0.344,4.418,0.777c1.627,0.463,2.67,1.002,3.152,1.63c0.365,0.383,0.793,0.896,1.275,1.57l5.932-17.18
		l5.023-2.502l-8.393,24.348c-0.133-0.08-0.607-0.379-1.459-0.889c-0.559-0.682-1.037-1.357-1.465-2.029
		c-1.223-1.15-3.047-1.775-5.484-1.838c-3.283-0.158-8.732-0.256-16.332-0.363c-7.98-0.082-11.967-1.931-11.967-5.548
		c0-0.954,0.303-2.001,0.906-3.173c0.369-0.689,1.316-1.91,2.842-3.693l1.455,1.135c-0.57,0.264-1.082,1.053-1.523,2.369
		c-0.182,0.453-0.281,0.867-0.281,1.238C213.205,77.453,216.998,78.707,224.609,78.83"/>
	<path d="M235.117,78.9 M243.998,83.44c0.104-0.018,0.195-0.078,0.229-0.193l5.924-17.184c0,0,3.324-1.586,4.254-2.035
		c-0.396,1.191-7.828,22.73-8.051,23.375c-0.381-0.248-1.135-0.711-1.154-0.711c0-0.035-1.369-1.928-1.369-1.928
		c-1.303-1.25-3.209-1.912-5.725-1.99l-16.332-0.354c-7.752-0.068-11.688-1.843-11.688-5.263c0-0.905,0.295-1.925,0.887-3.05
		c0,0,2.189-2.854,2.637-3.418c0.244,0.203,0.703,0.547,0.973,0.762c-0.51,0.404-0.965,1.086-1.361,2.264
		c0.008-0.029-0.309,1.318-0.309,1.318c0,2.636,3.83,3.96,11.697,4.073l5.199,0.074l5.254,0.283l4.385,0.779
		c1.555,0.426,2.559,0.934,3.006,1.524c0.016,0.021,1.275,1.551,1.275,1.551C243.802,83.413,243.908,83.464,243.998,83.44
		 M254.787,63.222l-5.025,2.498c0,0-5.584,15.955-5.904,16.879c-0.373-0.461-0.965-1.201-0.965-1.201
		c-0.518-0.665-1.594-1.231-3.279-1.712l-4.496-0.785l-5.301-0.291l-5.219-0.063l0.012-0.004
		c-7.375-0.105-11.123-1.293-11.123-3.509l0.264-1.129c0.523-1.563,1.041-2.076,1.373-2.223c0.105-0.037,0.156-0.119,0.178-0.23
		c0.01-0.102-0.037-0.188-0.115-0.25l-1.459-1.129c-0.066-0.049-0.133-0.074-0.203-0.066c-0.076,0.006-0.143,0.043-0.186,0.105
		l-2.875,3.729c-0.625,1.217-0.941,2.334-0.941,3.317c0,3.789,4.119,5.753,12.252,5.837l16.313,0.344
		c2.363,0.074,4.146,0.676,5.289,1.779l1.451,1.992c0.07,0.055,1.527,0.943,1.527,0.943c0.068,0.053,0.164,0.063,0.242,0.037
		c0.082-0.037,0.156-0.092,0.18-0.178l8.404-24.344c0.035-0.117,0-0.229-0.074-0.305C255.019,63.19,254.892,63.163,254.787,63.222"
		/>
	<path d="M284.105,53.075h-7.775L266.117,82.87l-3.361-2.931l7.297-21.235c0.191-0.873,0.232-1.424,0.191-1.65
		c0-0.52-0.168-0.994-0.469-1.365c-1.273-1.74-3.398-2.613-6.381-2.613h-1.188l-3.652-2.827c2.67-0.188,5.084-0.188,7.213,0
		c3.105,0.303,4.959,1.599,5.58,3.89c0.297,0.609,0.592,1.771,0.895,3.494c0-0.541,0.244-2.707,0.732-6.509
		c0.313-1.832,0.824-3.836,1.566-5.986l1.447,0.896c-0.066,0.537-0.086,1.035-0.086,1.484c0,0.309,0.109,0.844,0.361,1.598
		c0.188,0.301,0.545,0.688,1.102,1.133h3.186L284.105,53.075z"/>
	<path d="M270.515,56.979L270.515,56.979L270.515,56.979z M272.269,57.876c0.139-0.025,0.252-0.119,0.264-0.244l0.729-6.476
		c0,0,1.205-4.643,1.451-5.574c0.381,0.242,1.045,0.648,1.096,0.674c-0.115,0.023-0.193,1.262-0.193,1.262l0.389,1.682
		c0.008,0.057,1.182,1.266,1.182,1.266l3.365,0.074c0,0,1.955,1.569,2.752,2.241h-6.973c-0.117,0-0.225,0.092-0.264,0.195
		c0,0-9.809,28.613-10.082,29.414c-0.537-0.471-3.039-2.673-3.039-2.673l7.383-20.925c0.023-0.035,0.188-1.799,0.188-1.799
		c-0.008-0.014-0.51-1.488-0.51-1.488c-1.326-1.799-3.555-2.725-6.611-2.725h-1.188c0,0-2.004-1.581-2.842-2.241h6.369
		c2.996,0.283,4.746,1.487,5.322,3.669c0.021,0.047,0.91,3.461,0.91,3.461C272.009,57.804,272.132,57.884,272.269,57.876
		 M274.429,44.861c-0.084,0.041-0.148,0.09-0.174,0.178l-1.559,6.039c0,0.006-0.35,3.06-0.564,4.989
		c-0.248-0.998-0.535-2.057-0.535-2.057c-0.619-2.345-2.584-3.729-5.811-4.048h-7.248c-0.127,0-0.229,0.08-0.268,0.189
		c-0.039,0.123,0.008,0.242,0.098,0.32l3.672,2.823l1.354,0.061c2.863,0,4.939,0.84,6.164,2.502l0.389,1.195
		c0.008,0.072-0.174,1.588-0.174,1.588l-7.285,21.198l3.434,3.255c0.074,0.057,0.184,0.076,0.273,0.057
		c0.084-0.027,0.154-0.096,0.197-0.188c0,0,10.02-29.227,10.143-29.607h7.57c0.131,0,0.229-0.07,0.287-0.195
		c0-0.033,0.016-0.055,0.016-0.086c0-0.1-0.043-0.18-0.123-0.225l-3.547-2.823c0,0-3.338-0.064-3.357-0.064l0,0
		c0-0.098-0.867-0.988-0.867-0.988v-0.006c0-0.055-0.322-1.451-0.322-1.451l0.084-1.441l-1.582-1.174
		C274.599,44.842,274.513,44.832,274.429,44.861"/>
	<path d="M308.312,55.858c-0.186-0.246-0.918-0.762-2.193-1.496c-0.863-0.518-2.197-0.762-4.033-0.762
		c-4.92,0-8.756,1.248-11.494,3.73c2.07-0.086,3.471,0.311,4.197,1.158c0.914,1.168,1.189,2.279,0.82,3.316
		c-0.063,0.281-0.178,0.502-0.357,0.705L308.312,55.858z M329.582,53.128h-6.939l-9.953,28.693c-0.67-0.322-1.984-1.267-3.922-2.837
		l5.637-14.657c-0.242-1.342-0.51-2.34-0.82-2.984c-0.549-1.182-1.377-2.021-2.467-2.52l-18.793,9.762l-6.115-1.529l4.848-2.613
		c0.971-0.502,1.461-1.326,1.461-2.504c0-1.316-0.742-1.973-2.205-1.938c-1.031,0.045-2.061,0.199-3.092,0.459
		c-1.408,0.336-2.387,0.557-2.936,0.627c-0.721,0.115-1.469-0.08-2.225-0.596c-0.76-0.506-1.021-1.063-0.779-1.668
		c0.121-0.457,0.545-0.973,1.275-1.531c5.602-4.264,11.938-6.446,19-6.509c3.529-0.041,6.547,0.648,9.027,2.028
		c2.502,1.416,4.166,3.199,5.033,5.398c0.918,2.334,1.307,3.822,1.178,4.469l1.105-7.68l2.543-8.985l2.018,1.143
		c0.053,0.074,0.115,0.164,0.182,0.27c-0.066,0.314-0.09,0.578-0.09,0.818c0,0.586,0.209,1.084,0.639,1.414l1.465,0.516
		c0.309-0.039,0.795,0,1.455,0.107L329.582,53.128z"/>
	<path d="M318.173,55.042c0,0,2.27-7.952,2.453-8.591c0.451,0.246,1.691,0.949,1.691,0.949s0.016,0.016,0.016,0.07
		c0,0.189-0.064,0.773-0.064,0.773c0,0.678,0.244,1.242,0.734,1.633l1.551,0.563c0.129,0.012,1.514,0.117,1.514,0.117
		s1.934,1.616,2.73,2.284h-6.156c-0.129,0-0.223,0.088-0.266,0.191c0,0-9.596,27.638-9.836,28.334
		c-0.443-0.317-3.154-2.276-3.451-2.493c0.152-0.375,5.586-14.452,5.586-14.452c0-0.197-0.828-3.197-0.828-3.197
		c-0.572-1.238-1.447-2.131-2.613-2.652l-19.055,9.771c0,0-4.123-1.09-5.197-1.385c0.938-0.506,4.201-2.271,4.201-2.271
		c1.074-0.543,1.611-1.465,1.611-2.748l-0.592-1.639c-0.428-0.4-1.055-0.594-1.891-0.58l-3.174,0.469l-2.879,0.619
		c-0.66,0.102-1.352-0.074-2.037-0.553c-0.863-0.566-0.801-1.029-0.676-1.332c0.123-0.42,0.514-0.881,1.182-1.408
		c5.531-4.209,11.859-6.374,18.828-6.454c3.471-0.035,6.453,0.644,8.887,1.997c2.424,1.367,4.068,3.135,4.904,5.246
		c0.945,2.447,1.195,3.578,1.195,4.117c0,0.082,0,0.141-0.025,0.201c0,0-0.01,0.037-0.01,0.057c0,0.141,0.102,0.242,0.246,0.281
		c0.156,0.025,0.295-0.086,0.326-0.229v-0.053v0.043L318.173,55.042z M320.343,45.754c-0.086,0.031-0.143,0.102-0.172,0.193
		l-2.539,8.978c0,0-0.529,3.639-0.84,5.809c-0.203-0.725-0.506-1.586-0.912-2.625c-0.879-2.25-2.605-4.111-5.152-5.527
		c-2.523-1.419-5.617-2.116-9.184-2.095c-7.094,0.08-13.537,2.294-19.162,6.577c-0.795,0.617-1.248,1.166-1.369,1.693
		c-0.211,0.469-0.223,1.234,0.875,1.977c0.83,0.551,1.656,0.758,2.445,0.631l2.953-0.627l3.041-0.449
		c0.674-0.008,1.174,0.115,1.482,0.424l0.412,1.227c0,1.064-0.432,1.809-1.295,2.25l-4.855,2.619
		c-0.094,0.055-0.154,0.168-0.145,0.287c0.018,0.109,0.088,0.201,0.213,0.234l6.105,1.521l18.992-9.779
		c0.787,0.48,1.578,1.271,2.092,2.396l0.803,2.91l-5.641,14.495c-0.047,0.129-0.027,0.262,0.084,0.336l3.996,2.866
		c0.063,0.053,0.145,0.063,0.225,0.029c0.09-0.029,0.137-0.105,0.172-0.186c0,0,9.748-28.133,9.875-28.508h6.738
		c0.127,0,0.229-0.07,0.256-0.186c0.016-0.033,0.027-0.07,0.027-0.098c0-0.078-0.027-0.158-0.098-0.211l-3.477-2.853
		c-0.137-0.055-1.682-0.168-1.682-0.168l-1.32-0.508c-0.285-0.234-0.455-0.631-0.455-1.145l0.088-0.752
		c-0.031-0.191-0.221-0.52-0.221-0.52l-2.105-1.209C320.525,45.727,320.425,45.719,320.343,45.754"/>
	<path d="M302.085,53.882c1.777,0,3.084,0.234,3.885,0.711c0,0,1.219,0.832,1.793,1.23c-0.711,0.355-10.535,5.359-11.865,6.035
		c0.113-0.309,0.168-0.635,0.168-0.953c0-0.828-0.346-1.701-1.043-2.602c-0.666-0.758-1.871-1.135-3.467-1.205
		C294.187,55.042,297.66,53.882,302.085,53.882 M290.591,57.04h-0.008H290.591z M290.398,57.116c-0.086,0.08-0.113,0.207-0.07,0.314
		c0.047,0.115,0.156,0.188,0.273,0.188c1.963-0.088,3.293,0.275,3.973,1.051c0.85,1.088,1.109,2.1,0.771,3.049
		c-0.008,0.021-0.307,0.609-0.307,0.609c-0.072,0.1-0.072,0.264,0.029,0.352c0.088,0.08,0.203,0.141,0.316,0.08l13.053-6.648
		c0.102-0.051,0.188-0.1,0.188-0.201c0.012-0.104,0-0.168-0.086-0.221l-2.271-1.59c-0.91-0.533-2.279-0.789-4.182-0.789
		C297.119,53.31,293.183,54.593,290.398,57.116"/>
	<path d="M371.404,47.23l-6.473-3.607c-3.967-2.164-8.926-3.258-14.885-3.258c-3.402,0-6.506,0.521-9.314,1.516l-2.461,0.898
		c-0.674,0.342-1.549,0.844-2.643,1.518c-2.936,1.824-4.363,3.01-4.303,3.535l0.916,2.416h4.842l3.559,2.827h-7.697l-9.891,28.844
		l-3.781-2.79l8.951-26.054h-6.756l-3.561-2.827h11.773l-3.104-2.656c-0.367-0.258-0.463-0.699-0.271-1.299
		c0.369-0.984,0.945-1.77,1.734-2.365c2.189-1.588,3.688-2.598,4.473-3.004c2.068-1.086,4.801-2.096,8.219-3.004
		c1.887-0.477,3.947-0.729,6.207-0.729c5.846,0,11.656,1.289,17.445,3.867c1.814,0.783,4.047,2.229,6.658,4.348L371.404,47.23z"/>
	<path d="M329.681,50.539c0.129,0,0.238-0.082,0.281-0.189c0.002-0.035,0.006-0.068,0.006-0.102c0-0.088-0.033-0.162-0.092-0.215
		l-3.111-2.652c-0.129-0.102-0.266-0.236-0.266-0.533c0-0.135,0.016-0.283,0.078-0.463c0.342-0.914,0.887-1.672,1.633-2.244
		l4.439-2.971c2.045-1.061,4.783-2.076,8.16-2.961c1.855-0.488,3.916-0.727,6.129-0.727c5.781,0,11.598,1.275,17.322,3.824
		c1.809,0.777,4.016,2.234,6.602,4.32c0,0,0.094,0.582,0.174,1.07c-0.885-0.488-5.977-3.32-5.977-3.32
		c-3.971-2.193-9.031-3.301-15.014-3.301c-3.426,0-6.588,0.525-9.412,1.545l-2.455,0.9c-0.029,0.014-2.709,1.535-2.709,1.535
		c-4.004,2.514-4.479,3.344-4.416,3.811l0.934,2.482c0.027,0.107,0.137,0.189,0.254,0.189h4.842c0,0,1.941,1.569,2.762,2.241h-6.9
		c-0.129,0-0.229,0.092-0.273,0.195c0,0-9.516,27.757-9.762,28.477c-0.498-0.378-3.014-2.218-3.301-2.423
		c0.133-0.389,8.891-25.874,8.891-25.874c0.02-0.027,0.02-0.049,0.02-0.08c0-0.061-0.031-0.123-0.059-0.18
		c-0.063-0.063-0.143-0.115-0.236-0.115h-6.756c0,0-1.945-1.581-2.768-2.241H329.681z M340.658,37.66
		c-3.412,0.896-6.201,1.922-8.277,3.021l-4.516,3.002c-0.836,0.637-1.449,1.5-1.83,2.502c-0.066,0.266-0.102,0.469-0.102,0.662
		c0,0.502,0.236,0.803,0.482,0.979c0,0,1.75,1.488,2.508,2.137h-11.016c-0.125,0-0.225,0.08-0.275,0.189c0,0.041,0,0.07,0,0.096
		c0,0.08,0.023,0.168,0.102,0.225l3.551,2.823c0,0,5.838,0.045,6.543,0.053c-0.254,0.711-8.818,25.696-8.818,25.696
		c-0.012,0.031-0.012,0.049-0.012,0.084c0,0.09,0.035,0.172,0.117,0.221l3.76,2.788c0.074,0.051,0.172,0.084,0.258,0.051
		c0.098-0.039,0.166-0.084,0.189-0.189c0,0,9.697-28.273,9.822-28.643h7.498c0.115,0,0.225-0.07,0.268-0.195
		c0.016-0.033,0.016-0.055,0.016-0.086c0-0.1-0.041-0.18-0.104-0.225l-3.561-2.823c0,0-4.453-0.064-4.814-0.064
		c-0.125-0.305-0.844-2.232-0.844-2.232c0-0.035,0.16-0.684,4.174-3.207l2.625-1.488l2.43-0.877c2.762-1.004,5.863-1.5,9.215-1.5
		c5.885,0,10.836,1.072,14.75,3.215l6.469,3.598c0.107,0.047,0.221,0.039,0.297-0.016c0.117-0.074,0.152-0.188,0.129-0.293
		l-0.365-1.813c-2.719-2.277-4.986-3.752-6.826-4.563c-5.803-2.568-11.707-3.879-17.561-3.879
		C344.675,36.908,342.564,37.164,340.658,37.66"/>
	<path d="M384.123,53.075h-7.666l-9.953,29.285l-3.922-2.913l5.34-15.726c0.305-0.896-0.092-1.758-1.182-2.557
		c-1.096-0.803-2.41-1.156-3.928-1.035c-1.031,0.074-1.953,0.438-2.777,1.102c-0.82,0.654-1.264,1.33-1.326,2.012l-0.094,1.416
		l-2.096,0.463c0.186-0.189,0.027-0.639-0.457-1.34c-0.725-1.174-1.348-1.879-1.822-2.145c-1.291-1.006-3.26-1.508-5.924-1.508
		c-2.559,0-4.896,0.604-7.039,1.809c-2.125,1.217-3.186,2.598-3.186,4.156c0,1.568,1.637,2.518,4.939,2.844
		c-0.412-0.477-0.627-0.967-0.627-1.48c0-0.953,0.656-1.805,1.961-2.525c1.303-0.734,2.748-1.102,4.332-1.102
		c2.197-0.033,3.539,0.764,4.023,2.42c0.359,1.352,0.275,2.283-0.281,2.816c-1.824,1.799-4.416,2.703-7.771,2.703
		c-3.045,0-5.516-0.498-7.406-1.479c-2.08-1.053-3.107-2.51-3.107-4.369c0-2.68,1.537-5.115,4.641-7.314
		c2.482-1.768,5.238-2.678,8.266-2.711c3.221-0.039,5.76,0.693,7.65,2.189l1.268,1.293c0.178-0.596,1.092-1.328,2.719-2.158
		c1.631-0.82,2.939-1.221,3.916-1.191c1.756,0.08,3.07,0.416,3.902,1.01c0.369,0.424,0.754,0.811,1.182,1.24
		c0.666,0.518,1.129,1.402,1.365,2.629l2.672-7.834h-35.289l-3.723-2.827h47.658L384.123,53.075z"/>
	<path d="M356.798,65.114l0.016,0.008c0,0.063-0.039,0.143-0.086,0.199C356.775,65.255,356.775,65.185,356.798,65.114
		 M380.38,50.539c0,0,2.037,1.569,2.918,2.241h-6.842c-0.129,0-0.236,0.092-0.27,0.195c0,0-9.584,28.196-9.836,28.92
		c-0.506-0.379-3.15-2.36-3.43-2.548c0.123-0.387,5.281-15.544,5.281-15.544c0.074-0.225,0.115-0.445,0.115-0.67
		c0-0.777-0.48-1.51-1.41-2.197c-1.146-0.846-2.523-1.217-4.119-1.082c-1.074,0.068-2.078,0.469-2.926,1.162
		c-0.902,0.705-1.371,1.443-1.445,2.205c0,0-0.049,0.904-0.066,1.221c-0.285,0.063-1.105,0.238-1.537,0.328
		c-0.057-0.371-0.268-0.785-0.514-1.148c-0.762-1.201-1.396-1.943-1.918-2.223c-1.295-1.031-3.355-1.553-6.066-1.553
		c-2.6,0-5.014,0.621-7.188,1.859c-2.205,1.254-3.33,2.729-3.33,4.389c0,1.736,1.76,2.777,5.209,3.127
		c0.102,0.018,0.184-0.063,0.232-0.146c0.063-0.088,0.047-0.225,0.016-0.309l-0.563-1.309c0-0.84,0.605-1.604,1.814-2.281
		c1.27-0.707,2.668-1.061,4.189-1.061c2.078-0.037,3.303,0.689,3.742,2.215c0.338,1.232,0.264,2.1-0.195,2.541
		c-1.77,1.736-4.309,2.611-7.576,2.611c-2.982,0-5.438-0.484-7.273-1.438c-1.99-1.016-2.943-2.369-2.943-4.123
		c0-2.564,1.51-4.943,4.508-7.078c2.43-1.736,5.148-2.635,8.102-2.674c3.127-0.029,5.643,0.682,7.467,2.133l1.234,1.283
		c0.088,0.055,0.182,0.096,0.283,0.07c0.102-0.031,0.178-0.105,0.199-0.189c0.115-0.363,0.648-1.006,2.59-1.99
		c1.578-0.809,2.863-1.199,3.756-1.168c1.701,0.088,2.961,0.396,3.762,0.957c0,0.014,1.16,1.221,1.16,1.221
		c0.629,0.482,1.053,1.324,1.275,2.477c0.031,0.131,0.139,0.223,0.26,0.223c0.133,0.016,0.262-0.053,0.299-0.18l2.662-7.852
		c0.023-0.08,0.023-0.18-0.049-0.26c-0.045-0.063-0.123-0.115-0.225-0.115h-35.289c0,0-2.033-1.581-2.893-2.241H380.38z
		 M332.447,50.152c-0.008,0.047-0.012,0.07-0.012,0.096c0,0.08,0.043,0.168,0.113,0.225l3.732,2.823c0,0,34.279,0.053,35.057,0.053
		c-0.213,0.615-1.992,5.863-2.326,6.855c-0.299-0.861-0.574-1.715-1.131-2.152c0.02,0.021-1.141-1.199-1.141-1.199
		c-0.941-0.66-2.322-1.023-4.107-1.111c-1.033-0.035-2.373,0.369-4.076,1.232c-1.438,0.742-2.229,1.383-2.586,1.996
		c-0.303-0.309-1.066-1.076-1.066-1.076c-1.955-1.566-4.576-2.32-7.844-2.281c-3.084,0.041-5.932,0.979-8.438,2.766
		c-3.152,2.244-4.764,4.781-4.764,7.545c0,1.959,1.113,3.521,3.275,4.627c1.918,0.992,4.461,1.504,7.533,1.504
		c3.418,0,6.107-0.939,7.977-2.793c0.623-0.598,0.748-1.605,0.352-3.084c-0.525-1.785-1.973-2.664-4.307-2.629
		c-1.613,0-3.123,0.385-4.469,1.139c-1.395,0.781-2.113,1.719-2.113,2.771c0,0,0.262,0.59,0.465,1.076
		c-2.691-0.357-4.189-1.152-4.189-2.439c0-1.451,1.023-2.768,3.047-3.906c2.068-1.182,4.396-1.785,6.887-1.785
		c2.578,0,4.52,0.502,5.752,1.455c0.482,0.271,1.055,0.961,1.75,2.068c0.549,0.805,0.49,1.006,0.49,1.01
		c-0.041,0.098-0.041,0.248,0.02,0.328c0.078,0.074,0.141,0.158,0.254,0.125l2.107-0.453c0.121-0.021,0.211-0.131,0.211-0.25
		l0.094-1.422c0.053-0.586,0.465-1.215,1.217-1.809c0.785-0.637,1.645-0.979,2.625-1.053c1.469-0.104,2.676,0.219,3.734,0.984
		c0.986,0.729,1.352,1.469,1.084,2.24l-5.328,15.722c-0.039,0.115,0,0.242,0.088,0.318l3.926,2.917
		c0.078,0.041,0.164,0.07,0.258,0.039c0.076-0.025,0.158-0.098,0.182-0.18c0,0,9.744-28.707,9.875-29.088h7.469
		c0.129,0,0.236-0.07,0.271-0.201c0.008-0.027,0.023-0.049,0.023-0.08c0-0.1-0.043-0.18-0.131-0.234l-3.732-2.821l-47.832-0.057
		C332.595,49.963,332.49,50.043,332.447,50.152"/>
	<path d="M416.652,53.015h-30.457l-6.447,19.09c-0.094,0.205-0.141,0.395-0.141,0.572c0,0.885,0.973,1.314,2.936,1.314
		c3.107,0,7.328-1.594,12.633-4.801c1.777-1.068,2.994-2.232,3.664-3.477h-1.369c-1.342,0-2.492-0.234-3.465-0.688
		c-0.973-0.455-1.467-1.055-1.467-1.822c0-0.557,0.225-1.117,0.641-1.654c1.529-1.936,3.867-2.895,7.033-2.895
		c2.682,0,4.531,0.834,5.57,2.49c0.539,0.984,0.586,2.076,0.094,3.289c-1.34,3.297-3.801,5.881-7.395,7.768
		c-6.934,3.662-11.953,5.499-15.053,5.499c-2.076,0-3.621-0.238-4.662-0.735c-1.891-0.912-2.98-2.35-3.291-4.309
		c-0.043-0.494,0.311-1.852,1.086-4.037l5.293-15.605h-7.211l-2.73-2.821h34.324c0.178-0.611,0.389-1.148,0.633-1.615
		c0.066-0.906-0.574-1.594-1.91-2.049c-1.104-0.377-2.402-0.516-3.928-0.408c-2.264,0-5.293,0.123-9.119,0.355h-3.287
		c-4.453,0-7.799-0.75-10.051-2.264c-1.338-0.906-2.014-1.895-2.014-2.955c0-1.469,0.871-2.721,2.559-3.727
		c0.119-0.154,0.486-0.313,1.09-0.459c0.617-0.146,0.955-0.189,1.01-0.121c0,0.268-0.047,0.615-0.162,1.047
		c-0.811,0.459-1.285,0.955-1.451,1.496c-0.494,1.412,0.6,2.412,3.273,2.941c1.145,0.23,2.152,0.336,2.996,0.291
		c2.92-0.199,4.582-0.301,5.006-0.301c-0.184,0,1.182-0.061,4.096-0.188c1.82-0.053,3.605-0.066,5.363-0.021
		c3.158,0.113,5.465,0.488,6.91,1.123c2.303,1.025,3.641,2.25,4.012,3.68c0.17,0.834-0.035,1.824-0.643,2.99l2.475,0.184
		L416.652,53.015z"/>
	<path d="M380.146,36.803l-1.244,0.543c-1.719,1.006-2.625,2.34-2.625,3.912c0,1.158,0.729,2.225,2.135,3.184
		c2.291,1.545,5.73,2.326,10.215,2.326h3.287l9.119-0.357c1.498-0.104,2.781,0.021,3.828,0.385c1.162,0.389,1.738,0.945,1.738,1.676
		c0,0.027-0.008,0.059-0.008,0.092c-0.016,0-0.432,1.043-0.557,1.344h-34.121c-0.117,0-0.223,0.057-0.27,0.168
		c-0.012,0.037-0.025,0.072-0.025,0.119c0,0.061,0.025,0.135,0.088,0.18l2.734,2.831c0,0,6.316,0.082,7.033,0.082
		c-0.25,0.699-5.182,15.242-5.182,15.242c-0.926,2.629-1.096,3.566-1.096,3.99c0,0.074,0.006,0.131,0.016,0.17
		c0.303,2.059,1.477,3.586,3.434,4.522c1.088,0.518,2.652,0.775,4.783,0.775c3.143,0,8.238-1.862,15.189-5.532
		c3.633-1.912,6.156-4.586,7.518-7.918c0.514-1.283,0.475-2.463-0.113-3.52c-1.078-1.76-3.033-2.65-5.811-2.65
		c-3.244,0-5.686,1.014-7.258,3.02l-0.688,1.818c0,0.875,0.537,1.574,1.617,2.09c0.992,0.465,2.217,0.686,3.586,0.686h0.781
		c-0.672,1.055-1.711,2.061-3.23,2.959c-5.236,3.176-9.436,4.777-12.479,4.777c-1.762,0-2.648-0.348-2.648-1.039l0.121-0.469
		c0,0,6.254-18.537,6.385-18.92h30.252c0.127,0,0.23-0.08,0.27-0.182c0-0.031,0.008-0.074,0.008-0.092
		c0-0.086-0.039-0.182-0.102-0.234l-3.555-2.817c0,0-1.758-0.154-2.279-0.207c0.348-0.773,0.615-1.512,0.615-2.145
		c0-0.23-0.035-0.449-0.066-0.652c-0.381-1.514-1.793-2.824-4.17-3.875c-1.496-0.648-3.795-1.035-7.012-1.146l-5.393,0.027
		c-2.932,0.119-3.842,0.15-4.176,0.256c0.047-0.021,0.047-0.076,0.09-0.076l-5.014,0.311l-2.938-0.297
		c-1.613-0.326-2.631-0.811-2.992-1.438l-0.063-1.135c0.146-0.475,0.59-0.926,1.328-1.352c0.121-0.17,0.309-1.283,0.309-1.283
		C381.283,36.588,380.99,36.588,380.146,36.803"/>
	<path d="M388.626,46.186c-4.361,0-7.697-0.732-9.9-2.199c-1.244-0.846-1.881-1.766-1.881-2.729c0-1.357,0.82-2.527,2.424-3.484
		c0.072-0.074,1.021-0.428,1.021-0.428s0.592-0.105,0.725-0.127c-0.133,0.088-0.236,0.701-0.236,0.701
		c-0.744,0.336-1.258,0.879-1.438,1.486l0.102,1.592c0.451,0.793,1.555,1.352,3.389,1.717l3.057,0.281l4.994-0.291l4.104-0.178
		l5.355-0.033c3.1,0.119,5.395,0.49,6.797,1.111c2.215,0.975,3.498,2.148,3.836,3.484c0.047,0.16,0.063,0.336,0.063,0.529
		c0,0.645-0.223,1.408-0.66,2.264c-0.035,0.041-0.035,0.08-0.035,0.127c0,0.051,0.004,0.102,0.035,0.143
		c0.041,0.084,0.123,0.129,0.221,0.146l2.475,0.166c0,0,1.943,1.587,2.785,2.257h-29.662c-0.129,0-0.24,0.076-0.271,0.207
		l-6.445,19.076c0.012-0.029-0.16,0.672-0.16,0.672c0,1.063,1.086,1.596,3.225,1.596c3.15,0,7.451-1.623,12.781-4.848
		c1.816-1.078,3.084-2.285,3.773-3.58c0.045-0.086,0.045-0.191-0.01-0.281c-0.045-0.096-0.146-0.141-0.248-0.141h-1.369
		c-1.291,0-2.422-0.219-3.336-0.652c-0.881-0.402-1.303-0.926-1.303-1.566l0.582-1.482c1.447-1.846,3.742-2.787,6.799-2.787
		c2.559,0,4.357,0.785,5.324,2.352c0.498,0.902,0.535,1.912,0.066,3.043c-1.307,3.203-3.742,5.77-7.252,7.623
		c-6.871,3.639-11.887,5.47-14.922,5.47c-2.018,0-3.539-0.234-4.527-0.706c-1.816-0.873-2.846-2.219-3.131-4.115
		c-0.039-0.291,0.125-1.217,1.063-3.885l5.297-15.629c0.023-0.072,0.016-0.158-0.027-0.254c-0.055-0.057-0.146-0.111-0.248-0.111
		h-7.211c0,0-1.486-1.599-2.08-2.257h33.674c0.123,0,0.221-0.092,0.268-0.203l0.619-1.545c0.008-0.074,0.014-0.148,0.014-0.219
		c0-1.043-0.705-1.77-2.09-2.242c-1.125-0.379-2.479-0.512-4.039-0.408l-9.121,0.338H388.626z"/>
	<path d="M452.152,53.075h-7.953L434.08,82.894l-1.285-1.441c0.809-1.331,0.996-3.446,0.65-6.336
		c-0.313-2.516-0.859-4.719-1.646-6.619c-0.604-1.373-1.965-2.652-4.029-3.859c-2.063-1.207-4.197-1.764-6.379-1.684
		c-0.494,0-0.734,0.049-0.734,0.17l0.996,1.299c0.432,0.619,0.637,1.23,0.637,1.828c0,0.945-0.514,1.916-1.539,2.908
		c-1.227,1.172-3.26,1.764-6.123,1.764c-4.936,0-7.271-1.367-7.02-4.104c0.182-2.396,1.902-4.369,5.164-5.928
		c2.549-1.221,5.303-1.82,8.281-1.82c5.457,0,9.42,2.17,11.902,6.537c0.988,1.65,1.432,2.533,1.359,2.654l5.174-15.188h-30.986
		l-3.557-2.827h43.465L452.152,53.075z"/>
	<path d="M448.41,50.539c0,0,2.047,1.569,2.922,2.241h-7.133c-0.113,0-0.215,0.092-0.262,0.195c0,0-9.664,28.465-9.984,29.35
		c-0.318-0.354-0.703-0.781-0.836-0.928c0.498-0.938,0.768-2.188,0.768-3.8c0-0.767-0.047-1.601-0.16-2.519
		c-0.303-2.527-0.871-4.777-1.664-6.709c-0.643-1.412-2.027-2.754-4.145-3.979c-2.1-1.229-4.313-1.801-6.549-1.732
		c-0.338,0-0.998,0-0.998,0.465l1.066,1.471c-0.014,0,0.572,1.656,0.572,1.656c0,0.873-0.488,1.773-1.453,2.713
		c-1.168,1.109-3.154,1.664-5.928,1.664c-3.057,0-5.096-0.529-6.074-1.574c-0.529-0.57-0.752-1.301-0.666-2.203
		c0.168-2.279,1.863-4.199,5.014-5.705c2.498-1.197,5.234-1.793,8.152-1.793c5.316,0,9.23,2.139,11.664,6.389
		c0,0,1.314,2.492,1.336,2.508c0,0-0.01,0.01-0.01,0.014c0,0.107,0.051,0.221,0.166,0.266c0.139,0.053,0.301,0,0.367-0.123
		c0-0.021,0-0.035,0.008-0.049c0.004-0.01,0.004,0,0.012-0.01l5.17-15.191c0-0.027,0.014-0.049,0.014-0.08
		c0-0.061-0.027-0.123-0.059-0.18c-0.053-0.063-0.135-0.115-0.232-0.115h-30.986c0,0-1.945-1.581-2.766-2.241H448.41z
		 M404.681,50.152c-0.008,0.041-0.027,0.07-0.027,0.096c0,0.08,0.047,0.168,0.121,0.217l3.535,2.823c0,0,29.996,0.061,30.777,0.061
		c-0.229,0.668-4.338,12.779-4.781,14.09c-0.213-0.418-0.539-1.018-1.096-1.977c-2.537-4.434-6.623-6.67-12.158-6.67
		c-3.006,0-5.826,0.619-8.393,1.854c-3.361,1.582-5.166,3.66-5.342,6.154c-0.104,1.059,0.168,1.953,0.82,2.633
		c1.098,1.191,3.219,1.77,6.488,1.77c2.914,0,5.041-0.623,6.332-1.844c1.064-1.039,1.623-2.084,1.623-3.107l-0.689-1.977
		c0,0-0.502-0.652-0.783-1.021c0.148-0.018,0.281-0.025,0.281-0.025c2.125-0.068,4.229,0.486,6.242,1.645
		c2.008,1.166,3.314,2.424,3.902,3.73c0.77,1.867,1.318,4.063,1.631,6.543c0.336,2.823,0.143,4.901-0.621,6.168
		c-0.055,0.115-0.045,0.244,0.041,0.328l1.275,1.434c0.059,0.076,0.17,0.105,0.268,0.084c0.109-0.008,0.186-0.084,0.219-0.182
		c0,0,9.943-29.24,10.068-29.621h7.736c0.121,0,0.238-0.07,0.271-0.201c0.008-0.027,0.016-0.049,0.016-0.08
		c0-0.1-0.045-0.18-0.107-0.234l-3.75-2.821l-43.637-0.057C404.822,49.963,404.716,50.043,404.681,50.152"/>
	<path d="M508.525,53.075H484.97c0.053,0.408,0.27,0.922,0.627,1.535c0.605,0.459,2,0.869,4.174,1.256
		c2.547,0.457,4.426,1.68,5.631,3.652c0.67,1.078,0.992,2.08,0.992,3.027c0,0.719-0.182,1.434-0.533,2.109
		c-2.064,3.879-7.275,6.537-15.639,7.938c-0.066,0-0.133,0.008-0.191,0.057c-0.063,0.113,1.137,0.719,3.59,1.83
		c3.059,1.363,5.43,2.644,7.084,3.813l5.607,4.06l0.082,3.881c-3.293-3.082-7.756-5.78-13.359-8.104
		c-5.389-2.173-11.086-3.716-17.145-4.683l-3.016-7.133c3.268,1.518,7.324,2.271,12.178,2.271c1.867,0,3.479-0.127,4.816-0.396
		c2.416-0.492,3.92-0.83,4.535-1.025c1.75-0.492,3.418-1.291,4.994-2.393c0.969-0.648,1.453-1.615,1.453-2.912
		c0-0.922-0.477-1.67-1.41-2.254c-0.951-0.596-2.141-0.896-3.615-0.896c-0.668,0-1.367,0.084-2.107,0.248
		c-0.482,1.367-2.178,2.75-5.105,4.139c-1.576,0.721-3.314,1.088-5.205,1.088c-1.158,0-2.205-0.197-3.15-0.604
		c-0.945-0.4-1.42-0.932-1.42-1.629c0-0.895,0.77-1.928,2.322-3.152c1.039-0.803,2.213-1.396,3.504-1.771
		c0.553-0.271,1.803-0.619,3.734-1.025c1.93-0.428,2.947-0.668,3.008-0.729c0.061-0.049,0.092-0.125,0.092-0.195
		c0-0.422-0.742-1.092-2.193-2.002H465.24l-3.568-2.827h30.049c1.947-0.109,3.041-0.215,3.289-0.285
		c0.914-0.154,1.887-0.547,2.924-1.199c0.309-0.186,0.484-0.381,0.543-0.566c0.248-0.688-0.639-1.195-2.646-1.543
		c-1.707-0.266-3.139-0.361-4.289-0.291c-2.26,0-5.301,0.113-9.137,0.334c-1.525,0.086-2.578,0.127-3.186,0.127
		c-4.512,0-7.891-0.756-10.135-2.273c-1.344-0.914-2.004-1.898-2.004-2.953c0-1.486,0.848-2.746,2.543-3.758
		c0.195-0.191,0.791-0.289,1.832-0.289c0.975,0,1.518,0.016,1.639,0.061c-2.488,0.834-3.486,2.004-3.006,3.533
		c0.111,0.369,0.758,0.762,1.908,1.166c1.16,0.395,2.072,0.602,2.746,0.602c0.547,0.072,1.824,0.01,3.834-0.18
		c2.434-0.23,5.139-0.34,8.127-0.34c1.158,0,2.523,0.033,4.111,0.102c3.168,0.078,5.504,0.447,7.023,1.111
		c2.617,1.199,3.926,2.688,3.926,4.447c0,0.68-0.184,1.402-0.543,2.195h3.738L508.525,53.075z"/>
	<path d="M474.742,43.188 M496.111,86.233L496.111,86.233v0.008V86.233z M469.251,44.311c-1.262-0.846-1.891-1.76-1.891-2.713
		c0-1.393,0.785-2.549,2.418-3.533c0.07-0.061,0.299-0.225,1.676-0.225c0,0,0.316,0,0.58,0c-1.439,0.697-2.361,1.51-2.361,2.566
		c0,0.258,0.043,0.523,0.145,0.816c0.145,0.479,0.809,0.91,2.084,1.35l2.84,0.615c0-0.006,3.871-0.176,3.871-0.176l8.09-0.346
		l4.096,0.105c3.119,0.074,5.455,0.438,6.926,1.102c2.494,1.137,3.754,2.551,3.754,4.18l-0.518,2.082
		c-0.02,0.088-0.016,0.193,0.035,0.26c0.059,0.07,0.141,0.145,0.225,0.145h3.738c0,0,1.949,1.569,2.77,2.241H484.97
		c-0.092,0-0.201,0.018-0.252,0.1c-0.043,0.055-0.059,0.096-0.059,0.148c0,0.021,0.016,0.049,0.016,0.086l0.668,1.646
		c0.74,0.564,2.137,0.98,4.381,1.381c2.443,0.449,4.268,1.633,5.426,3.523c0.635,1.025,0.961,1.994,0.961,2.881l-0.514,1.982
		c-2.004,3.779-7.195,6.395-15.434,7.781c-0.086,0.012-0.236,0.109-0.283,0.18c-0.035,0.053-0.121,0.168-0.121,0.244
		c0,0.012,0,0.014,0.016,0.021c0.051,0.176,0.105,0.348,3.727,1.973c3.037,1.357,5.406,2.638,7.027,3.808l5.602,4.05
		c0,0-0.01,2.279-0.012,3.092c-3.275-2.934-7.592-5.581-12.979-7.806c-5.373-2.169-11.16-3.743-17.211-4.714
		c0,0-2.189-5.461-2.568-6.398c3.186,1.363,7.07,2.113,11.691,2.113l4.875-0.41l4.553-1.035c1.768-0.494,3.482-1.309,5.084-2.432
		c1.039-0.689,1.572-1.76,1.572-3.137c0-1.006-0.514-1.857-1.553-2.498c-0.996-0.613-2.248-0.934-3.758-0.934l-2.164,0.242
		c-0.662,1.482-2.34,2.822-5.158,4.172c-1.549,0.695-3.26,1.061-5.096,1.061c-1.115,0-2.146-0.191-3.041-0.574
		c-0.844-0.361-1.246-0.813-1.246-1.377c0-0.785,0.74-1.773,2.207-2.936c1.004-0.766,2.162-1.352,3.414-1.723
		c0.047-0.012,3.727-1.023,3.727-1.023c2.982-0.639,3.049-0.709,3.135-0.797c0.057-0.047,0.176-0.324,0.176-0.395
		c0-0.357-0.262-0.947-2.314-2.244L465.24,52.78c0,0-1.939-1.581-2.766-2.241h29.246l3.371-0.316
		c0.91-0.137,1.922-0.553,2.994-1.211l0.666-0.74c0.039-0.088,0.053-0.197,0.053-0.289c0-0.156-0.037-0.305-0.125-0.438
		c-0.313-0.525-1.215-0.904-2.801-1.16l-4.354-0.309l-9.133,0.334l-3.174,0.125C474.789,46.535,471.441,45.785,469.251,44.311
		 M469.429,37.637c-1.742,1.023-2.637,2.373-2.637,3.961c0,1.148,0.711,2.229,2.123,3.186c2.299,1.549,5.748,2.32,10.303,2.32
		l3.209-0.131l9.113-0.318c0.02-0.014,4.244,0.275,4.244,0.275c1.803,0.314,2.277,0.709,2.406,0.896
		c0.016,0.279-0.42,0.703-0.42,0.703c-0.984,0.625-1.941,1.014-2.818,1.158c-0.041,0.014-3.248,0.275-3.248,0.275h-30.033
		c-0.111,0-0.221,0.08-0.258,0.189c-0.016,0.041-0.016,0.07-0.016,0.096c0,0.08,0.041,0.168,0.107,0.225l3.563,2.823l14.236,0.061
		c1.809,1.182,1.904,1.633,1.904,1.721c-0.057-0.018-2.865,0.648-2.865,0.648l-3.805,1.043c-1.275,0.379-2.504,0.988-3.566,1.803
		c-1.621,1.305-2.414,2.408-2.414,3.379c0,0.809,0.525,1.449,1.586,1.881c0.973,0.42,2.07,0.639,3.264,0.639
		c1.926,0,3.715-0.381,5.328-1.119c3.023-1.43,4.742-2.846,5.26-4.303c-0.215,0.172,1.83-0.063,1.83-0.047
		c1.393,0,2.564,0.277,3.455,0.836c0.867,0.549,1.283,1.209,1.283,2.021c0,1.197-0.443,2.074-1.326,2.67
		c-1.549,1.088-3.205,1.883-4.916,2.354c0,0.006-4.523,1.039-4.523,1.039l-4.746,0.381c-4.787,0-8.852-0.748-12.068-2.238
		c-0.102-0.049-0.225-0.027-0.307,0.055c-0.09,0.076-0.121,0.195-0.082,0.303l3.033,7.141c6.223,1.117,11.961,2.678,17.297,4.831
		c5.551,2.291,10.027,4.999,13.283,8.048c0.072,0.088,0.193,0.109,0.307,0.045c0.105-0.031,0.16-0.133,0.16-0.252l-0.09-3.885
		l-5.727-4.272c-1.656-1.188-4.061-2.485-7.125-3.853c-1.789-0.805-2.613-1.219-3.029-1.461c8.137-1.426,13.352-4.109,15.398-7.975
		l0.572-2.242c0-0.996-0.336-2.078-1.027-3.172c-1.258-2.043-3.209-3.314-5.822-3.783c-2.117-0.367-3.486-0.771-4.053-1.199l0,0
		c0-0.059-0.242-0.686-0.381-1.035h23.133c0.129,0,0.234-0.07,0.268-0.195c0.014-0.033,0.018-0.055,0.018-0.086
		c0-0.1-0.031-0.18-0.105-0.225l-3.563-2.823c0,0-2.973-0.043-3.566-0.064c0.143-0.529,0.477-1.91,0.477-1.91
		c0-1.867-1.377-3.445-4.094-4.697c-1.557-0.689-3.959-1.074-7.145-1.156l-4.111-0.094l-8.16,0.35l-3.758,0.176
		c-0.043,0-2.695-0.582-2.695-0.582c-1.424-0.5-1.695-0.867-1.73-0.99c-0.439-1.363,0.486-2.402,2.826-3.193
		c0.125-0.035,0.254-0.158,0.238-0.299c-0.02-0.123-0.113-0.221-0.238-0.234l-1.73-0.07
		C469.97,37.262,469.599,37.457,469.429,37.637"/>
	<path d="M549.824,53.015H524.3l-2.846,8.477c-0.086,0.713-0.121,1.111-0.121,1.188c0.113,0.266,0.482,0.543,1.092,0.852
		c0.297,0.141,0.631,0.225,1.004,0.225c0.91,0,2.652-0.869,5.244-2.59c2.594-1.713,4.469-2.584,5.615-2.584
		c1.703,0,3.178,1.006,4.389,3.004c1.213,1.994,1.52,3.883,0.908,5.668c-1.57,4.553-5.033,7.752-10.404,9.561
		c-3.465,1.173-7.299,1.649-11.496,1.417c-4.334-0.225-7.592-1.368-9.773-3.468c-0.98-0.887-2.162-2.648-3.57-5.262
		c-0.18-0.742-0.545-2.164-1.09-4.246c-0.238-1.203-0.182-3.305,0.174-6.285l0.736-4.199l2.381,0.908
		c-0.615,2.535-0.436,5.508,0.543,8.953c0.43,1.576,1.184,2.961,2.277,4.135l2.484,2.604c1.875,1.393,4.732,2.107,8.576,2.107
		c2.299,0,4.617-0.338,6.928-0.998c2.316-0.656,4.172-1.508,5.582-2.57c2.363-1.852,3.561-3.418,3.561-4.701
		c0-0.854-0.439-1.689-1.279-2.486c-0.482,0.605-1.93,1.467-4.293,2.605c-1.902,0.908-3.389,1.523-4.479,1.904
		c-1.59,0.512-3.037,0.775-4.383,0.775c-2.018,0-3.508-0.488-4.477-1.445c-0.973-0.953-1.342-2.051-1.1-3.27
		c0-0.15-0.055-0.15-0.168,0c-0.035,0-0.035,0.01,0,0.066l3.457-10.344H500.96l-3.373-2.821h35.697
		c0.246-0.129,1.191-0.357,2.832-0.725c1.652-0.354,2.404-0.625,2.279-0.773c0.365-0.75-0.322-1.389-2.092-1.883
		c-1.463-0.414-2.832-0.582-4.115-0.506c-2.189,0-5.229,0.057-9.133,0.17c-1.58,0.248-2.668,0.371-3.283,0.371
		c-4.445,0-7.779-0.785-10.033-2.324c-1.348-0.918-2.012-1.951-2.012-3.064c0-1.184,0.664-2.348,2.012-3.461
		c0.785-0.652,1.307-0.936,1.543-0.871l1.918,0.58c-1.707,0.697-2.563,1.543-2.563,2.537c0,0.771,0.609,1.41,1.844,1.914
		c1.209,0.494,2.43,0.734,3.639,0.734c-0.598,0,2.105-0.1,8.127-0.293l7.221-0.174c6.625,0.266,10.281,1.85,10.941,4.77
		c0.188,0.871,0.043,1.863-0.447,2.998h4.291L549.824,53.015z"/>
	<path d="M506.253,55.679c0-0.025,0-0.049,0.012-0.066C506.253,55.63,506.253,55.653,506.253,55.679 M509.894,44.297
		c-1.24-0.859-1.873-1.82-1.873-2.838c0-1.094,0.633-2.182,1.893-3.24c1.004-0.834,1.266-0.814,1.291-0.814
		c0,0,0.752,0.221,1.313,0.396c-1.338,0.689-2.164,1.484-2.164,2.443c0,0.9,0.67,1.625,2,2.16c1.252,0.518,2.512,0.777,3.768,0.777
		c-0.037-0.014,8.146-0.303,8.146-0.303l7.209-0.174c6.422,0.262,10.027,1.783,10.67,4.557c0.162,0.803,0.008,1.75-0.439,2.813
		c-0.043,0.086-0.041,0.188,0.016,0.264c0.055,0.078,0.146,0.127,0.24,0.127h4.291c0,0,1.943,1.587,2.77,2.257H524.3
		c-0.121,0-0.236,0.076-0.275,0.207l-2.838,8.471c-0.029,0.057-0.152,1.279-0.152,1.279c0.029,0.123,1.256,1.104,1.256,1.104
		l1.139,0.25c0.988,0,2.746-0.869,5.414-2.633c2.525-1.686,4.357-2.543,5.445-2.543c1.613,0,2.973,0.938,4.143,2.865
		c1.154,1.922,1.459,3.746,0.889,5.441c-1.537,4.443-4.992,7.6-10.223,9.377c-3.42,1.161-7.25,1.628-11.404,1.417
		c-4.227-0.229-7.463-1.368-9.58-3.39c-0.963-0.881-2.135-2.629-3.52-5.197c0-0.027-1.078-4.186-1.078-4.186
		c-0.082-0.453-0.123-1.059-0.123-1.801c0-1.129,0.107-2.602,0.322-4.383c0,0,0.57-3.266,0.676-3.84
		c0.439,0.164,1.553,0.594,1.846,0.705c-0.191,0.932-0.334,1.891-0.334,2.926c0,1.805,0.297,3.789,0.9,5.908
		c0.439,1.631,1.229,3.053,2.357,4.264l2.465,2.607c1.949,1.457,4.912,2.186,8.799,2.186c2.33,0,4.686-0.338,7.01-1.01
		c2.34-0.652,4.242-1.545,5.666-2.611c2.471-1.93,3.668-3.545,3.668-4.928c0-0.932-0.457-1.842-1.357-2.693
		c-0.066-0.043-0.137-0.07-0.223-0.064c-0.078,0-0.15,0.043-0.193,0.096c-0.471,0.561-1.883,1.412-4.209,2.529l-4.434,1.883
		c-1.537,0.5-2.982,0.758-4.291,0.758c-1.908,0-3.367-0.457-4.281-1.35c-0.906-0.898-1.232-1.889-1.016-3.016l3.279-10.264
		c0.027-0.072,0.023-0.17-0.027-0.254c-0.051-0.057-0.145-0.111-0.242-0.111H500.96c0,0-1.836-1.581-2.602-2.257h34.926
		c0.125-0.025,2.898-0.715,2.898-0.715c2.361-0.523,2.439-0.715,2.5-0.906c0.074-0.178,0.094-0.346,0.094-0.492
		c0-0.16-0.02-0.305-0.094-0.455c-0.252-0.537-1.006-0.986-2.297-1.348c-1.498-0.428-2.914-0.602-4.213-0.525l-9.117,0.162
		c-0.039,0.023-3.283,0.379-3.283,0.379C515.406,46.564,512.087,45.785,509.894,44.297 M509.552,37.783
		c-1.404,1.164-2.123,2.412-2.123,3.676c0,1.207,0.727,2.318,2.131,3.297c2.295,1.566,5.732,2.348,10.213,2.348l3.326-0.348
		c0.018,0.012,9.09-0.164,9.09-0.164c1.26-0.078,2.602,0.094,4.029,0.498c1.393,0.389,1.832,0.783,1.945,1.045
		c0.057,0.137,0.057,0.271-0.02,0.443c0.049,0.008-2.09,0.619-2.09,0.619l-2.895,0.742l-35.572-0.033
		c-0.123,0-0.232,0.057-0.271,0.18c-0.008,0.031-0.008,0.066-0.008,0.107c0,0.082,0.02,0.145,0.086,0.209l3.391,2.813
		c0,0,17.838,0.07,18.588,0.072c-0.227,0.688-3.336,9.977-3.336,9.977c0,0.119-0.008,0.23-0.008,0.363
		c0,1.143,0.412,2.205,1.35,3.131c1.027,1.004,2.598,1.521,4.682,1.521c1.361,0,2.867-0.27,4.469-0.793
		c0.008,0,4.506-1.902,4.506-1.902c2.197-1.049,3.441-1.83,4.086-2.447c0.658,0.686,1.078,1.367,1.078,2.07
		c0,1.197-1.162,2.697-3.453,4.488c-1.365,1.016-3.209,1.867-5.48,2.506c-2.256,0.654-4.578,0.988-6.842,0.988
		c-3.752,0-6.588-0.691-8.42-2.059l-2.42-2.559c-1.066-1.135-1.805-2.484-2.221-4.018c-0.953-3.373-1.137-6.342-0.561-8.814
		c0.047-0.129-0.027-0.275-0.16-0.32l-2.371-0.908c-0.086-0.035-0.176-0.025-0.246,0.025c-0.082,0.039-0.125,0.107-0.135,0.195
		l-0.738,4.176c-0.379,3.076-0.441,5.156-0.18,6.398c0,0.02,1.1,4.258,1.1,4.258c1.428,2.699,2.641,4.502,3.648,5.406
		c2.221,2.128,5.574,3.321,9.945,3.55c4.217,0.221,8.113-0.26,11.609-1.43c5.418-1.837,8.99-5.116,10.576-9.755
		c0.635-1.844,0.326-3.842-0.93-5.906c-1.26-2.078-2.832-3.133-4.633-3.133c-1.217,0-3.107,0.865-5.768,2.631
		c-3.15,2.098-4.508,2.531-5.092,2.531l-0.871-0.195c0,0-0.953-0.695-0.963-0.703c0.033-0.012,0.143-1.033,0.143-1.033
		s2.645-7.865,2.762-8.24h25.324c0.109,0,0.221-0.08,0.264-0.182c0.012-0.031,0.012-0.074,0.012-0.092
		c0-0.086-0.031-0.182-0.104-0.234l-3.564-2.817c0,0-3.523-0.057-4.115-0.057c0.262-0.693,0.457-1.365,0.457-1.973
		c0-0.277-0.01-0.533-0.074-0.789c-0.695-3.053-4.479-4.729-11.223-5l-7.229,0.174c-6.73,0.229-8.115,0.268-8.41,0.428
		c0.023-0.014,0.023-0.041,0.047-0.041c0.051-0.061,0.154-0.082,0.236-0.082c-1.182,0-2.365-0.258-3.539-0.742
		c-1.088-0.439-1.645-0.994-1.645-1.637c0-0.873,0.793-1.627,2.381-2.283c0.1-0.041,0.162-0.135,0.162-0.254v-0.008
		c0-0.129-0.084-0.23-0.193-0.256l-1.922-0.586C511.097,36.777,510.699,36.834,509.552,37.783"/>
	<path d="M591.292,47.23l-6.488-3.607c-3.955-2.164-8.914-3.258-14.875-3.258c-3.428,0-6.523,0.521-9.313,1.516l-2.467,0.898
		c-0.672,0.342-1.555,0.844-2.652,1.518c-2.924,1.824-4.355,3.01-4.289,3.535l0.914,2.416h4.83l3.563,2.827h-7.693l-9.891,28.844
		l-3.773-2.79l8.945-26.054h-6.742l-3.578-2.827h11.787l-3.105-2.656c-0.371-0.258-0.471-0.699-0.281-1.299
		c0.365-0.984,0.941-1.77,1.727-2.365c2.209-1.588,3.691-2.598,4.48-3.004c2.063-1.086,4.816-2.096,8.227-3.004
		c1.887-0.477,3.947-0.729,6.199-0.729c5.85,0,11.652,1.289,17.438,3.867c1.828,0.783,4.053,2.229,6.666,4.348L591.292,47.23z"/>
	<path d="M549.57,50.539c0.113,0,0.207-0.082,0.262-0.189c0.016-0.035,0.023-0.068,0.023-0.102c0-0.088-0.031-0.162-0.105-0.215
		l-3.107-2.652c-0.137-0.102-0.27-0.236-0.27-0.533c0-0.135,0.031-0.283,0.092-0.463c0.338-0.914,0.879-1.672,1.629-2.244
		l4.426-2.971c2.045-1.061,4.787-2.076,8.164-2.961c1.848-0.488,3.912-0.727,6.133-0.727c5.771,0,11.611,1.275,17.32,3.824
		c1.801,0.777,4.029,2.234,6.604,4.32c0,0,0.094,0.582,0.172,1.07c-0.871-0.488-5.963-3.32-5.963-3.32
		c-3.99-2.193-9.039-3.301-15.02-3.301c-3.428,0-6.586,0.525-9.418,1.545l-2.465,0.9c-0.035,0.014-2.703,1.535-2.703,1.535
		c-3.998,2.514-4.469,3.344-4.418,3.811l0.932,2.482c0.035,0.107,0.141,0.189,0.266,0.189h4.83c0,0,1.953,1.569,2.766,2.241h-6.896
		c-0.131,0-0.225,0.092-0.275,0.195c0,0-9.514,27.757-9.756,28.477c-0.512-0.378-3.01-2.218-3.291-2.423
		c0.121-0.389,8.865-25.874,8.865-25.874c0.016-0.027,0.02-0.049,0.02-0.08c0-0.061-0.02-0.123-0.047-0.18
		c-0.051-0.063-0.141-0.115-0.234-0.115h-6.742c0,0-1.961-1.581-2.777-2.241H549.57z M560.542,37.66
		c-3.418,0.896-6.199,1.922-8.285,3.021l-4.504,3.002c-0.84,0.637-1.461,1.5-1.834,2.502c-0.078,0.266-0.121,0.469-0.121,0.662
		c0,0.502,0.252,0.803,0.49,0.979c0,0,1.742,1.488,2.5,2.137h-11.006c-0.121,0-0.23,0.08-0.266,0.189
		c-0.016,0.041-0.023,0.07-0.023,0.096c0,0.08,0.043,0.168,0.117,0.225l3.563,2.823c0,0,5.822,0.045,6.523,0.053
		c-0.234,0.711-8.807,25.696-8.807,25.696c-0.02,0.031-0.027,0.049-0.027,0.084c0,0.09,0.047,0.172,0.125,0.221l3.775,2.788
		c0.066,0.051,0.168,0.084,0.25,0.051c0.092-0.039,0.154-0.084,0.191-0.189c0,0,9.695-28.273,9.824-28.643h7.486
		c0.129,0,0.234-0.07,0.283-0.195c0.01-0.033,0.01-0.055,0.01-0.086c0-0.1-0.039-0.18-0.109-0.225l-3.566-2.823
		c0,0-4.441-0.064-4.809-0.064c-0.127-0.305-0.844-2.232-0.844-2.232c0.008-0.035,0.164-0.684,4.166-3.207l2.633-1.488l2.428-0.877
		c2.762-1.004,5.861-1.5,9.223-1.5c5.887,0,10.832,1.072,14.736,3.215l6.482,3.598c0.094,0.047,0.219,0.039,0.313-0.016
		c0.092-0.074,0.135-0.188,0.102-0.293l-0.363-1.813c-2.711-2.277-4.979-3.752-6.826-4.563c-5.791-2.568-11.691-3.879-17.557-3.879
		C564.548,36.908,562.433,37.164,560.542,37.66"/>
	<path d="M599.091,53.075h-7.943l-10.146,29.818l-1.27-1.441c0.791-1.331,0.992-3.446,0.639-6.336
		c-0.299-2.516-0.848-4.719-1.641-6.619c-0.615-1.373-1.949-2.652-4.01-3.859c-2.086-1.207-4.215-1.764-6.395-1.684
		c-0.494,0-0.742,0.049-0.742,0.17l1.01,1.299c0.424,0.619,0.635,1.23,0.635,1.828c0,0.945-0.518,1.916-1.533,2.908
		c-1.229,1.172-3.275,1.764-6.129,1.764c-4.932,0-7.273-1.367-7.035-4.104c0.178-2.396,1.916-4.369,5.188-5.928
		c2.537-1.221,5.303-1.82,8.262-1.82c5.461,0,9.424,2.17,11.916,6.537c0.965,1.65,1.416,2.533,1.361,2.654l5.166-15.188h-30.992
		l-3.539-2.827h43.453L599.091,53.075z"/>
	<path d="M595.345,50.539c0,0,2.047,1.569,2.906,2.241h-7.104c-0.135,0-0.236,0.092-0.279,0.195c0,0-9.678,28.465-9.984,29.35
		c-0.311-0.354-0.701-0.781-0.828-0.928c0.498-0.938,0.77-2.188,0.77-3.8c0-0.767-0.064-1.601-0.17-2.519
		c-0.313-2.527-0.875-4.777-1.666-6.709c-0.629-1.412-2.027-2.754-4.139-3.979c-2.104-1.229-4.305-1.801-6.545-1.732
		c-0.338,0-1.012,0-1.012,0.465l1.07,1.471l0.574,1.656c0,0.873-0.494,1.773-1.459,2.713c-1.152,1.109-3.15,1.664-5.914,1.664
		c-3.049,0-5.1-0.529-6.076-1.574c-0.531-0.57-0.75-1.301-0.688-2.203c0.182-2.279,1.877-4.199,5.033-5.705
		c2.496-1.197,5.234-1.793,8.145-1.793c5.326,0,9.24,2.139,11.668,6.389c0,0,1.311,2.492,1.322,2.508c0,0-0.008,0.01-0.008,0.014
		c0,0.107,0.074,0.221,0.184,0.266c0.127,0.053,0.295,0,0.357-0.123c0.014-0.021,0.014-0.035,0.014-0.049c0-0.01,0.01,0,0.01-0.01
		l5.166-15.191c0.006-0.027,0.025-0.049,0.025-0.08c0-0.061-0.025-0.123-0.059-0.18c-0.043-0.063-0.146-0.115-0.236-0.115h-30.992
		c0,0-1.943-1.581-2.752-2.241H595.345z M551.601,50.152c0,0.041-0.016,0.07-0.016,0.096c0,0.08,0.059,0.168,0.117,0.217
		l3.539,2.823c0,0,30.018,0.061,30.785,0.061c-0.234,0.668-4.344,12.779-4.797,14.09c-0.205-0.418-0.523-1.018-1.088-1.977
		c-2.523-4.434-6.607-6.67-12.162-6.67c-2.992,0-5.82,0.619-8.395,1.854c-3.361,1.582-5.148,3.66-5.328,6.154
		c-0.102,1.059,0.17,1.953,0.805,2.633c1.109,1.191,3.236,1.77,6.504,1.77c2.922,0,5.049-0.623,6.316-1.844
		c1.088-1.039,1.633-2.084,1.633-3.107l-0.684-1.977c0,0-0.506-0.652-0.777-1.021c0.129-0.018,0.271-0.025,0.271-0.025
		c2.131-0.068,4.229,0.486,6.238,1.645c2.004,1.166,3.322,2.424,3.896,3.73c0.775,1.867,1.32,4.063,1.623,6.543
		c0.354,2.823,0.152,4.901-0.6,6.168c-0.063,0.115-0.047,0.244,0.031,0.328l1.275,1.434c0.07,0.076,0.168,0.105,0.266,0.084
		c0.1-0.008,0.199-0.084,0.217-0.182c0,0,9.934-29.24,10.084-29.621h7.734c0.123,0,0.227-0.07,0.268-0.201
		c0-0.027,0.004-0.049,0.004-0.08c0-0.1-0.039-0.18-0.102-0.234l-3.744-2.821l-43.625-0.057
		C551.761,49.963,551.652,50.043,551.601,50.152"/>
	<path d="M633.298,65.528c-1.455,4.033-4.691,7.178-9.688,9.438c-1.592,0.736-2.623,1.186-3.109,1.375
		c-1.041,0.424-2.104,0.705-3.205,0.858c-2.551,0.383-4.592,0.563-6.121,0.563c-4.021,0-7.41-0.716-10.15-2.149
		c-1.104-0.572-2.318-1.568-3.66-3.012c-2.143-2.334-3.625-4.998-4.482-7.98c-0.24-0.865-0.789-3.768-1.641-8.723l2.727,0.549
		c0.662,5.781,3.189,10.238,7.547,13.404c2.318,1.664,5.596,2.68,9.84,3.055c6.129,0.533,11.443-1.223,15.93-5.285
		c1.035-0.939,1.547-2.1,1.547-3.463c0-1.707-0.48-2.559-1.449-2.559c-0.119,0-0.209,0.012-0.275,0.061
		c-0.611,0.373-1.521,0.949-2.723,1.717c-1.516,0.91-4.002,1.699-7.455,2.344c-1.148,0.232-2.693,0.369-4.633,0.398
		c-3.711,0.076-6.527-0.734-8.463-2.439c-0.842-0.719-1.035-1.838-0.547-3.355c0.492-1.434,1.611-2.555,3.373-3.373
		c1.77-0.822,3.838-1.18,6.223-1.053c1.393,0.068,2.475,0.441,3.24,1.096c0.76,0.662,0.98,1.424,0.678,2.289
		c-0.246,0.75-1.215,1.703-2.922,2.832c0,0.074,0.066,0.113,0.195,0.113c1.4,0,3.842-0.895,7.322-2.676
		c2.133-1.104,3.723-2.221,4.77-3.342c0.109-0.086,0.236-0.125,0.365-0.125c0.973,0,2.436,1.137,4.395,3.41
		c1.709,1.936,2.566,3.611,2.566,5.016C633.492,64.851,633.423,65.185,633.298,65.528 M639.896,53.075h-48.564l-3.648-2.827h48.479
		L639.896,53.075z"/>
	<path d="M636.162,50.539c0,0,2.041,1.569,2.912,2.241h-47.742c0,0-2-1.581-2.844-2.241H636.162z M587.406,50.152
		c-0.033,0.123-0.002,0.242,0.1,0.32l3.643,2.823l48.748,0.061c0.139,0,0.232-0.07,0.275-0.201c0.039-0.107,0-0.238-0.094-0.314
		l-3.742-2.821l-48.652-0.057C587.55,49.963,587.449,50.043,587.406,50.152"/>
	<path d="M633.572,65.624L633.572,65.624L633.572,65.624z M633.033,65.44 M604.023,63.46c-0.758-0.635-0.922-1.641-0.455-3.045
		c0.455-1.354,1.539-2.434,3.217-3.211c1.715-0.797,3.764-1.145,6.074-1.033c1.33,0.086,2.367,0.426,3.068,1.039
		c0.668,0.586,0.865,1.225,0.604,1.982c-0.223,0.689-1.166,1.596-2.811,2.684c-0.105,0.063-0.055,0.254-0.012,0.379
		c0.027,0.115,0.236,0.256,0.365,0.256c1.457,0,3.9-0.887,7.455-2.699c2.154-1.111,3.783-2.266,4.85-3.414
		c0.752-0.031,1.973,0.547,4.326,3.285c1.645,1.867,2.502,3.496,2.502,4.828l-0.174,0.93l0,0l0,0
		c-1.434,3.926-4.643,7.059-9.535,9.281l-3.107,1.359l-3.131,0.838l-6.084,0.567c-3.957,0-7.324-0.714-10.012-2.128
		c-1.068-0.539-2.27-1.541-3.59-2.939c-2.102-2.303-3.582-4.945-4.414-7.883c0,0-1.229-6.578-1.561-8.279
		c0.557,0.109,1.863,0.379,2.131,0.445c0.705,5.719,3.26,10.23,7.629,13.391c2.334,1.678,5.695,2.715,9.984,3.098
		c6.172,0.529,11.598-1.266,16.133-5.359c1.094-1.01,1.641-2.246,1.641-3.674c0-1.885-0.578-2.844-1.734-2.844
		c-0.059,0-0.389,0.074-0.43,0.104l-2.729,1.717c-1.471,0.895-3.943,1.672-7.342,2.313l-4.611,0.398
		C608.677,65.917,605.906,65.114,604.023,63.46 M606.546,56.702c-1.828,0.828-3.018,2.021-3.523,3.541
		c-0.525,1.623-0.307,2.852,0.625,3.658c1.986,1.738,4.891,2.584,8.65,2.51l4.688-0.404c3.482-0.654,6.008-1.471,7.543-2.396
		l2.734-1.729c0.406,0,1.291,0,1.291,2.275c0,1.289-0.479,2.348-1.467,3.264c-4.408,3.971-9.68,5.723-15.693,5.213
		c-4.189-0.373-7.449-1.385-9.697-3.016c-4.289-3.09-6.783-7.531-7.438-13.199c-0.02-0.109-0.115-0.209-0.225-0.24l-2.742-0.566
		c-0.094-0.006-0.186,0.018-0.256,0.076c-0.059,0.066-0.102,0.162-0.09,0.254l1.668,8.752c0.863,3.021,2.377,5.736,4.527,8.102
		c1.361,1.453,2.623,2.492,3.746,3.061c2.773,1.45,6.234,2.192,10.287,2.192l6.152-0.574l3.279-0.862l3.135-1.379
		c5.037-2.303,8.344-5.531,9.83-9.609l0.205-1.113c0-1.469-0.887-3.209-2.633-5.193c-2.037-2.367-3.539-3.512-4.613-3.512
		l-0.525,0.15c-1.076,1.16-2.656,2.273-4.729,3.344c-3.008,1.545-5.092,2.277-6.508,2.475c1.236-0.918,2.08-1.725,2.295-2.4
		c0.117-0.281,0.152-0.551,0.152-0.811c0-0.656-0.301-1.248-0.908-1.781c-0.809-0.697-1.959-1.094-3.418-1.17
		C610.476,55.489,608.343,55.858,606.546,56.702"/>
	<path d="M651.515,53.075h-7.77l-10.22,29.795l-3.377-2.931l7.318-21.235c0.174-0.873,0.23-1.424,0.174-1.65
		c0-0.52-0.148-0.994-0.469-1.365c-1.261-1.74-3.39-2.613-6.375-2.613h-1.193l-3.648-2.827c2.682-0.188,5.08-0.188,7.199,0
		c3.125,0.303,4.97,1.599,5.585,3.89c0.291,0.609,0.615,1.771,0.91,3.494c0-0.541,0.246-2.707,0.729-6.509
		c0.295-1.832,0.826-3.836,1.555-5.986l1.459,0.896c-0.066,0.537-0.094,1.035-0.094,1.484c0,0.309,0.121,0.844,0.369,1.598
		c0.18,0.301,0.541,0.688,1.09,1.133h3.201L651.515,53.075z"/>
	<path d="M637.919,56.979L637.919,56.979L637.919,56.979z M639.663,57.876c0.154-0.025,0.262-0.119,0.271-0.244l0.727-6.476
		c0,0,1.201-4.643,1.445-5.574c0.387,0.242,1.039,0.648,1.09,0.674c-0.1,0.023-0.193,1.262-0.193,1.262l0.389,1.682
		c0.027,0.057,1.182,1.266,1.182,1.266l3.385,0.074c0,0,1.943,1.569,2.766,2.241h-6.979c-0.129,0-0.24,0.092-0.279,0.195
		c0,0-9.808,28.613-10.082,29.414c-0.525-0.471-3.045-2.673-3.045-2.673l7.396-20.925c0.004-0.035,0.184-1.799,0.184-1.799
		c-0.012-0.014-0.518-1.488-0.518-1.488c-1.318-1.799-3.558-2.725-6.605-2.725h-1.193c0,0-1.99-1.581-2.844-2.241h6.383
		c2.992,0.283,4.734,1.487,5.322,3.669c0.014,0.047,0.906,3.461,0.906,3.461C639.401,57.804,639.536,57.884,639.663,57.876
		 M641.827,44.861c-0.08,0.041-0.139,0.09-0.174,0.178l-1.557,6.039c0,0.006-0.35,3.06-0.557,4.989
		c-0.264-0.998-0.549-2.057-0.549-2.057c-0.617-2.345-2.57-3.729-5.802-4.048h-7.25c-0.123,0-0.232,0.08-0.271,0.189
		c-0.039,0.123,0.027,0.242,0.104,0.32l3.666,2.823l1.359,0.061c2.867,0,4.938,0.84,6.146,2.502l0.416,1.195
		c0.008,0.072-0.188,1.588-0.188,1.588L629.89,79.84l3.449,3.255c0.061,0.057,0.162,0.076,0.262,0.057
		c0.086-0.027,0.156-0.096,0.188-0.188c0,0,10.023-29.227,10.158-29.607h7.568c0.113,0,0.24-0.07,0.266-0.195
		c0.012-0.033,0.027-0.055,0.027-0.086c0-0.1-0.047-0.18-0.105-0.225l-3.563-2.823c0,0-3.338-0.064-3.361-0.064l0,0
		c0-0.098-0.865-0.988-0.865-0.988v-0.006c0-0.055-0.332-1.451-0.332-1.451l0.098-1.441l-1.582-1.174
		C642.007,44.842,641.905,44.832,641.827,44.861"/>
	<path d="M697.335,47.23l-6.475-3.607c-3.957-2.164-8.922-3.258-14.881-3.258c-3.414,0-6.506,0.521-9.311,1.516l-2.473,0.898
		c-0.67,0.342-1.541,0.844-2.637,1.518c-2.93,1.824-4.357,3.01-4.295,3.535l0.91,2.416h4.836l3.574,2.827h-7.709l-9.885,28.844
		l-3.783-2.79l8.957-26.054h-6.76l-3.566-2.827h11.777l-3.105-2.656c-0.365-0.258-0.447-0.699-0.271-1.299
		c0.357-0.984,0.941-1.77,1.73-2.365c2.193-1.588,3.695-2.598,4.492-3.004c2.051-1.086,4.789-2.096,8.207-3.004
		c1.883-0.477,3.953-0.729,6.193-0.729c5.852,0,11.67,1.289,17.459,3.867c1.824,0.783,4.045,2.229,6.662,4.348L697.335,47.23z"/>
	<path d="M655.616,50.539c0.123,0,0.232-0.082,0.275-0.189c0.016-0.035,0.016-0.068,0.016-0.102c0-0.088-0.031-0.162-0.102-0.215
		l-3.104-2.652c-0.127-0.102-0.264-0.236-0.264-0.533c0-0.135,0.021-0.283,0.072-0.463c0.34-0.914,0.895-1.672,1.646-2.244
		l4.43-2.971c2.027-1.061,4.787-2.076,8.141-2.961c1.855-0.488,3.928-0.727,6.135-0.727c5.785,0,11.611,1.275,17.33,3.824
		c1.809,0.777,4.025,2.234,6.6,4.32c0,0,0.098,0.582,0.176,1.07c-0.871-0.488-5.971-3.32-5.971-3.32
		c-3.982-2.193-9.039-3.301-15.018-3.301c-3.43,0-6.588,0.525-9.402,1.545l-2.475,0.9c-0.027,0.014-2.695,1.535-2.695,1.535
		c-4.002,2.514-4.488,3.344-4.441,3.811l0.947,2.482c0.041,0.107,0.141,0.189,0.262,0.189h4.836c0,0,1.943,1.569,2.764,2.241h-6.898
		c-0.115,0-0.219,0.092-0.266,0.195c0,0-9.51,27.757-9.77,28.477c-0.51-0.378-3.018-2.218-3.295-2.423
		c0.131-0.389,8.883-25.874,8.883-25.874c0.008-0.027,0.014-0.049,0.014-0.08c0-0.061-0.018-0.123-0.045-0.18
		c-0.063-0.063-0.143-0.115-0.232-0.115h-6.76c0,0-1.938-1.581-2.766-2.241H655.616z M666.595,37.66
		c-3.408,0.896-6.199,1.922-8.281,3.021l-4.51,3.002c-0.826,0.637-1.447,1.5-1.836,2.502c-0.074,0.266-0.098,0.469-0.098,0.662
		c0,0.502,0.236,0.803,0.479,0.979c0,0,1.746,1.488,2.512,2.137h-11.021c-0.125,0-0.223,0.08-0.266,0.189
		c-0.008,0.041-0.016,0.07-0.016,0.096c0,0.08,0.031,0.168,0.105,0.225l3.559,2.823c0,0,5.838,0.045,6.535,0.053
		c-0.238,0.711-8.814,25.696-8.814,25.696c-0.008,0.031-0.016,0.049-0.016,0.084c0,0.09,0.043,0.172,0.117,0.221l3.775,2.788
		c0.074,0.051,0.16,0.084,0.258,0.051c0.074-0.039,0.152-0.084,0.184-0.189c0,0,9.697-28.273,9.82-28.643h7.504
		c0.104,0,0.221-0.07,0.26-0.195c0.008-0.033,0.016-0.055,0.016-0.086c0-0.1-0.039-0.18-0.102-0.225l-3.566-2.823
		c0,0-4.449-0.064-4.818-0.064c-0.125-0.305-0.838-2.232-0.838-2.232c0.006-0.035,0.156-0.684,4.174-3.207l2.623-1.488l2.43-0.877
		c2.762-1.004,5.869-1.5,9.217-1.5c5.885,0,10.85,1.072,14.75,3.215l6.471,3.598c0.1,0.047,0.223,0.039,0.309-0.016
		c0.102-0.074,0.137-0.188,0.119-0.293l-0.371-1.813c-2.713-2.277-4.979-3.752-6.826-4.563c-5.795-2.568-11.689-3.879-17.568-3.879
		C670.612,36.908,668.505,37.164,666.595,37.66"/>
	<path d="M694.233,63.179l3.443-10.104h-20.584l2.098,1.316c1.291,0.797,1.924,1.873,1.924,3.201c0,1.111-0.279,2.049-0.828,2.811
		c0.482-0.08,1.607-0.49,3.371-1.223c1.588-0.672,2.736-0.988,3.471-0.988c1.08,0,2.248,0.416,3.461,1.26
		C691.267,59.905,692.468,61.153,694.233,63.179 M710.601,53.075h-8.396l-9.943,29.285l-3.41-3.331l4.434-13.05
		c0-0.775-0.578-1.537-1.742-2.27c-1.156-0.744-2.352-1.119-3.559-1.119c-1.766,0-3.566,0.645-5.391,1.945
		c-6.52,4.629-10.482,7.027-11.879,7.174c-0.361,0.035-0.918,0.061-1.652,0.061c-2.127,0-3.287-0.176-3.465-0.516
		c-1.221-0.1-2.504-1.297-3.836-3.559c-0.307-0.557-0.678-1.25-1.104-2.078l3.654-1.803c-0.057,0.328,0.07,0.879,0.404,1.631
		c0.34,0.762,0.697,1.264,1.059,1.535c0.49,0.371,1.031,0.551,1.645,0.551c1.023,0,2.766-0.795,5.213-2.371l5.01-3.316
		c0.232-1.33,0.307-2.25,0.188-2.783c-0.434-2.264-2.537-3.449-6.303-3.52c-2.787-0.076-4.484-0.168-5.025-0.277
		c-1.221-0.266-2.246-0.984-3.107-2.15l-1.174-0.393l-3.205-2.474h48.023L710.601,53.075z"/>
	<path d="M665.606,67.204 M707.038,50.539c0,0,1.951,1.569,2.771,2.241h-7.605c-0.127,0-0.242,0.092-0.277,0.195
		c0,0-9.51,28.024-9.809,28.863c-0.514-0.525-3.057-3.009-3.057-3.009l4.496-12.759v-0.033c0-0.963-0.635-1.787-1.852-2.578
		c-1.211-0.75-2.451-1.152-3.723-1.152c-1.816,0-3.684,0.678-5.555,1.998c-6.459,4.572-10.404,6.975-11.746,7.125l-1.621,0.053
		c-2.813,0-3.162-0.291-3.213-0.352c-1.357-0.248-2.566-1.408-3.852-3.568c0.012,0.004-0.676-1.297-0.943-1.811
		c0.4-0.207,2.609-1.301,3.084-1.545c0.125,0.523,0.311,1.355,0.311,1.355l1.158,1.641l1.813,0.615c1.102,0,2.855-0.799,5.355-2.436
		l5.018-3.297c0.129-0.201,0.309-3.086,0.309-3.086c-0.447-2.404-2.652-3.666-6.574-3.736l-4.967-0.283
		c-1.131-0.238-2.127-0.93-2.924-2.029l-1.342-0.494c0,0-1.652-1.29-2.459-1.919H707.038z M658.743,50.152
		c-0.039,0.123-0.008,0.242,0.094,0.32l3.191,2.479l1.277,0.436c0.754,1.117,1.855,1.877,3.137,2.154l5.076,0.287
		c3.637,0.068,5.621,1.145,6.033,3.285c0,0.014-0.193,2.691-0.193,2.691l-4.895,3.105c-2.379,1.557-4.076,2.348-5.045,2.348
		l-1.473-0.5l-0.957-1.432l-0.396-1.457c-0.018-0.088-0.078-0.221-0.16-0.248c-0.078-0.043-0.17-0.092-0.248-0.064l-3.648,1.809
		c-0.074,0.033-0.133,0.096-0.141,0.162c-0.031,0.08-0.023,0.15,0.008,0.225l1.098,2.084c1.406,2.381,2.746,3.58,4.061,3.705
		c-0.031,0.182,0.545,0.512,3.5,0.512l1.68-0.068c1.459-0.156,5.408-2.514,12.018-7.225c1.76-1.248,3.541-1.887,5.225-1.887
		c1.148,0,2.303,0.361,3.418,1.066c1.055,0.691,1.588,1.367,1.588,2.039l-4.414,12.96l3.484,3.618
		c0.059,0.066,0.164,0.098,0.256,0.068c0.102-0.008,0.184-0.09,0.211-0.182c0,0,9.754-28.707,9.879-29.088h8.195
		c0.123,0,0.23-0.07,0.264-0.195c0.02-0.033,0.02-0.055,0.02-0.086c0-0.1-0.031-0.18-0.111-0.225l-3.555-2.823l-48.203-0.064
		C658.896,49.963,658.782,50.043,658.743,50.152"/>
	<path d="M680.581,60.362c0,0.006,0.008,0.006,0.008,0.006c0,0.074-0.029,0.137-0.064,0.199
		C680.56,60.505,680.554,60.415,680.581,60.362 M697.263,53.356c-0.213,0.654-2.877,8.479-3.146,9.283
		c-1.563-1.783-2.715-2.975-3.363-3.428c-1.252-0.873-2.482-1.305-3.625-1.305c-0.77,0-1.945,0.322-3.576,1.016
		c0,0-1.967,0.703-2.85,1.035c0.371-0.701,0.688-1.443,0.688-2.365c0-1.426-0.684-2.582-2.045-3.436c0,0-0.672-0.42-1.275-0.801
		H697.263z M677.093,52.78c-0.125,0-0.246,0.092-0.281,0.211c-0.025,0.123,0.021,0.234,0.131,0.318l2.102,1.316
		c1.195,0.748,1.783,1.719,1.783,2.967c0,1.049-0.26,1.936-0.77,2.65c-0.082,0.1-0.102,0.234-0.016,0.348
		c0.078,0.09,0.166,0.143,0.295,0.1l3.438-1.24c1.537-0.658,2.672-0.975,3.354-0.975c1.016,0,2.127,0.402,3.303,1.207
		c0.641,0.447,1.848,1.682,3.592,3.684c0.055,0.064,0.168,0.121,0.27,0.086c0.094-0.021,0.178-0.086,0.219-0.188l3.43-10.109
		c0.031-0.08,0.014-0.18-0.035-0.26c-0.051-0.063-0.135-0.115-0.229-0.115H677.093z"/>
	<polygon points="714.097,36.133 690.636,47.959 679.677,47.959 710.259,35.789 	"/>
	<path d="M710.376,36.041c0,0,1.66,0.15,2.719,0.273c-1.607,0.803-22.6,11.387-22.6,11.387s-7.176-0.023-9.373-0.023
		C683.612,46.697,710.376,36.041,710.376,36.041 M679.565,47.695c-0.121,0.045-0.201,0.178-0.174,0.309
		c0.023,0.131,0.141,0.24,0.285,0.24h10.959l23.59-11.873c0.109-0.057,0.174-0.18,0.145-0.303c-0.02-0.113-0.105-0.213-0.246-0.219
		l-3.836-0.348L679.565,47.695z"/>
	<path d="M751.688,47.23l-6.488-3.607c-3.955-2.164-8.895-3.258-14.865-3.258c-3.422,0-6.521,0.521-9.318,1.516l-2.471,0.898
		c-0.664,0.342-1.551,0.844-2.652,1.518c-2.916,1.824-4.35,3.01-4.285,3.535l0.918,2.416h4.83l3.559,2.827h-7.693l-9.883,28.844
		l-3.777-2.79l8.947-26.054h-6.75l-3.572-2.827h11.779l-3.1-2.656c-0.377-0.258-0.463-0.699-0.283-1.299
		c0.373-0.984,0.941-1.77,1.73-2.365c2.197-1.588,3.678-2.598,4.469-3.004c2.076-1.086,4.822-2.096,8.234-3.004
		c1.875-0.477,3.957-0.729,6.207-0.729c5.838,0,11.648,1.289,17.432,3.867c1.838,0.783,4.051,2.229,6.676,4.348L751.688,47.23z"/>
	<path d="M709.966,50.539c0.125,0,0.223-0.082,0.266-0.189c0.018-0.035,0.018-0.068,0.018-0.102c0-0.088-0.033-0.162-0.092-0.215
		l-3.113-2.652c-0.123-0.102-0.268-0.236-0.268-0.533c0-0.135,0.023-0.283,0.09-0.463c0.332-0.914,0.881-1.672,1.631-2.244
		l4.43-2.971c2.049-1.061,4.779-2.076,8.164-2.961c1.848-0.488,3.904-0.727,6.133-0.727c5.768,0,11.605,1.275,17.316,3.824
		c1.799,0.777,4.021,2.234,6.602,4.32c0,0,0.1,0.582,0.174,1.07c-0.871-0.488-5.967-3.32-5.967-3.32
		c-3.99-2.193-9.043-3.301-15.014-3.301c-3.422,0-6.588,0.525-9.42,1.545l-2.467,0.9c-0.027,0.014-2.695,1.535-2.695,1.535
		c-4.012,2.514-4.486,3.344-4.434,3.811l0.93,2.482c0.043,0.107,0.16,0.189,0.277,0.189h4.83c0,0,1.941,1.569,2.766,2.241h-6.9
		c-0.127,0-0.232,0.092-0.271,0.195c0,0-9.518,27.757-9.762,28.477c-0.504-0.378-3.012-2.218-3.303-2.423
		c0.131-0.389,8.885-25.874,8.885-25.874c0.021-0.027,0.021-0.049,0.021-0.08c0-0.061-0.021-0.123-0.059-0.18
		c-0.043-0.063-0.145-0.115-0.225-0.115h-6.75c0,0-1.959-1.581-2.771-2.241H709.966z M720.938,37.66
		c-3.418,0.896-6.205,1.922-8.277,3.021l-4.516,3.002c-0.84,0.637-1.453,1.5-1.824,2.502c-0.076,0.266-0.119,0.469-0.119,0.662
		c0,0.502,0.252,0.803,0.49,0.979c0,0,1.742,1.488,2.5,2.137h-11.006c-0.121,0-0.232,0.08-0.281,0.189
		c0,0.041-0.016,0.07-0.016,0.096c0,0.08,0.051,0.168,0.117,0.225l3.566,2.823c0,0,5.818,0.045,6.527,0.053
		c-0.25,0.711-8.811,25.696-8.811,25.696c-0.023,0.031-0.023,0.049-0.023,0.084c0,0.09,0.047,0.172,0.121,0.221l3.773,2.788
		c0.068,0.051,0.178,0.084,0.264,0.051c0.082-0.039,0.148-0.084,0.176-0.189c0,0,9.703-28.273,9.832-28.643h7.482
		c0.121,0,0.236-0.07,0.27-0.195c0.018-0.033,0.018-0.055,0.018-0.086c0-0.1-0.033-0.18-0.107-0.225l-3.566-2.823
		c0,0-4.443-0.064-4.801-0.064c-0.131-0.305-0.852-2.232-0.852-2.232c0.008-0.035,0.164-0.684,4.174-3.207l2.629-1.488l2.43-0.877
		c2.752-1.004,5.863-1.5,9.227-1.5c5.877,0,10.836,1.072,14.73,3.215l6.486,3.598c0.094,0.047,0.215,0.039,0.309-0.016
		c0.092-0.074,0.141-0.188,0.111-0.293l-0.369-1.813c-2.719-2.277-4.982-3.752-6.834-4.563c-5.783-2.568-11.689-3.879-17.545-3.879
		C724.952,36.908,722.841,37.164,720.938,37.66"/>
	<path d="M756.845,53.015h-30.461l-6.445,19.09c-0.094,0.205-0.139,0.395-0.139,0.572c0,0.885,0.986,1.314,2.924,1.314
		c3.127,0,7.348-1.594,12.652-4.801c1.773-1.068,2.986-2.232,3.66-3.477h-1.377c-1.326,0-2.479-0.234-3.457-0.688
		c-0.973-0.455-1.471-1.055-1.471-1.822c0-0.557,0.205-1.117,0.641-1.654c1.521-1.936,3.871-2.895,7.029-2.895
		c2.672,0,4.531,0.834,5.576,2.49c0.533,0.984,0.58,2.076,0.09,3.289c-1.334,3.297-3.799,5.881-7.381,7.768
		c-6.936,3.662-11.967,5.499-15.076,5.499c-2.061,0-3.609-0.238-4.645-0.735c-1.887-0.912-2.979-2.35-3.277-4.309
		c-0.066-0.494,0.299-1.852,1.072-4.037l5.287-15.605h-7.211l-2.732-2.821h34.33c0.18-0.611,0.389-1.148,0.635-1.615
		c0.057-0.906-0.576-1.594-1.92-2.049c-1.088-0.377-2.391-0.516-3.92-0.408c-2.244,0-5.297,0.123-9.133,0.355h-3.289
		c-4.439,0-7.783-0.75-10.039-2.264c-1.344-0.906-2.008-1.895-2.008-2.955c0-1.469,0.844-2.721,2.559-3.727
		c0.117-0.154,0.48-0.313,1.09-0.459c0.615-0.146,0.939-0.189,1.012-0.121c0,0.268-0.072,0.615-0.176,1.047
		c-0.793,0.459-1.268,0.955-1.445,1.496c-0.48,1.412,0.609,2.412,3.264,2.941c1.164,0.23,2.162,0.336,3.012,0.291
		c2.914-0.199,4.58-0.301,5.004-0.301c-0.178,0,1.174-0.061,4.102-0.188c1.807-0.053,3.59-0.066,5.357-0.021
		c3.158,0.113,5.457,0.488,6.912,1.123c2.305,1.025,3.639,2.25,4.008,3.68c0.172,0.834-0.033,1.824-0.641,2.99l2.467,0.184
		L756.845,53.015z"/>
	<path d="M728.808,46.186c-4.354,0-7.688-0.732-9.885-2.199c-1.236-0.846-1.885-1.766-1.885-2.729c0-1.357,0.828-2.527,2.426-3.484
		c0.078-0.074,1.023-0.428,1.023-0.428s0.594-0.105,0.732-0.127c-0.139,0.088-0.246,0.701-0.246,0.701
		c-0.734,0.336-1.256,0.879-1.451,1.486l0.113,1.592c0.467,0.793,1.566,1.352,3.383,1.717l3.066,0.281l4.994-0.291l4.109-0.178
		l5.35-0.033c3.098,0.119,5.387,0.49,6.799,1.111c2.205,0.975,3.508,2.148,3.842,3.484c0.035,0.16,0.063,0.336,0.063,0.529
		c0,0.645-0.225,1.408-0.678,2.264c-0.021,0.041-0.033,0.08-0.033,0.127c0,0.051,0.012,0.102,0.041,0.143
		c0.035,0.084,0.137,0.129,0.223,0.146l2.467,0.166c0,0,1.951,1.587,2.785,2.257h-29.662c-0.121,0-0.223,0.076-0.258,0.207
		l-6.443,19.076c0-0.029-0.172,0.672-0.172,0.672c0,1.063,1.082,1.596,3.213,1.596c3.166,0,7.461-1.623,12.801-4.848
		c1.805-1.078,3.08-2.285,3.762-3.58c0.057-0.086,0.045-0.191,0-0.281c-0.061-0.096-0.152-0.141-0.25-0.141h-1.377
		c-1.283,0-2.41-0.219-3.33-0.652c-0.879-0.402-1.311-0.926-1.311-1.566l0.58-1.482c1.455-1.846,3.75-2.787,6.803-2.787
		c2.559,0,4.354,0.785,5.324,2.352c0.506,0.902,0.529,1.912,0.074,3.043c-1.303,3.203-3.75,5.77-7.254,7.623
		c-6.865,3.639-11.887,5.47-14.936,5.47c-1.996,0-3.531-0.234-4.52-0.706c-1.816-0.873-2.832-2.219-3.135-4.115
		c-0.023-0.291,0.121-1.217,1.072-3.885l5.299-15.629c0.023-0.072,0.016-0.158-0.031-0.254c-0.063-0.057-0.148-0.111-0.248-0.111
		h-7.211c0,0-1.486-1.599-2.082-2.257h33.68c0.115,0,0.236-0.092,0.271-0.203l0.615-1.545c0.006-0.074,0.016-0.148,0.016-0.219
		c0-1.043-0.705-1.77-2.094-2.242c-1.123-0.379-2.477-0.512-4.045-0.408c0.031,0-9.109,0.338-9.109,0.338H728.808z M720.343,36.803
		l-1.252,0.543c-1.707,1.006-2.617,2.34-2.617,3.912c0,1.158,0.717,2.225,2.129,3.184c2.297,1.545,5.73,2.326,10.205,2.326h3.289
		l9.133-0.357c1.488-0.104,2.777,0.021,3.826,0.385c1.16,0.389,1.738,0.945,1.738,1.676c0,0.027-0.021,0.059-0.021,0.092
		c0,0-0.412,1.043-0.533,1.344h-34.135c-0.113,0-0.217,0.057-0.252,0.168c-0.02,0.037-0.029,0.072-0.029,0.119
		c0,0.061,0.029,0.135,0.08,0.18l2.73,2.831c0,0,6.316,0.082,7.029,0.082c-0.242,0.699-5.166,15.242-5.166,15.242
		c-0.93,2.629-1.111,3.566-1.111,3.99c0,0.074,0.014,0.131,0.014,0.17c0.318,2.059,1.479,3.586,3.445,4.522
		c1.082,0.518,2.646,0.775,4.766,0.775c3.143,0,8.258-1.862,15.209-5.532c3.631-1.912,6.16-4.586,7.514-7.918
		c0.529-1.283,0.477-2.463-0.102-3.52c-1.088-1.76-3.053-2.65-5.83-2.65c-3.232,0-5.668,1.014-7.252,3.02l-0.701,1.818
		c0,0.875,0.555,1.574,1.637,2.09c0.992,0.465,2.221,0.686,3.574,0.686h0.801c-0.686,1.055-1.723,2.061-3.236,2.959
		c-5.238,3.176-9.443,4.777-12.5,4.777c-1.75,0-2.639-0.348-2.639-1.039l0.119-0.469c0,0,6.262-18.537,6.395-18.92h30.246
		c0.121,0,0.23-0.08,0.258-0.182c0.02-0.031,0.02-0.074,0.02-0.092c0-0.086-0.031-0.182-0.105-0.234l-3.547-2.817
		c0,0-1.773-0.154-2.279-0.207c0.334-0.773,0.613-1.512,0.613-2.145c0-0.23-0.025-0.449-0.057-0.652
		c-0.396-1.514-1.793-2.824-4.178-3.875c-1.502-0.648-3.795-1.035-7.021-1.146l-5.391,0.027c-2.924,0.119-3.838,0.15-4.156,0.256
		c0.035-0.021,0.043-0.076,0.078-0.076l-5.018,0.311l-2.945-0.297c-1.594-0.326-2.613-0.811-2.994-1.438l-0.059-1.135
		c0.143-0.475,0.596-0.926,1.334-1.352c0.125-0.17,0.303-1.283,0.303-1.283C721.479,36.588,721.185,36.588,720.343,36.803"/>
	<path fill="#EB2D2E" d="M394.25,213.092c-3.619-0.732-6.666-1.828-9.164-3.305c-2.473-1.465-4.266-3.143-5.432-5.021
		c-1.156-1.873-1.729-3.885-1.729-6.033c0-2.717,0.443-5.32,1.359-7.822l7.303-21.199h22.059l-8.59,24.648
		c-0.393,1.158-0.582,2.375-0.582,3.676c0,3.451,3.297,5.201,9.922,5.201c3.516,0,6.5-0.662,8.98-1.986
		c2.457-1.303,4.336-3.857,5.619-7.635l8.08-23.904h22.045l-8.934,26.414c-2.191,6.164-6.068,10.711-11.615,13.652
		c-5.533,2.938-13.791,4.416-24.756,4.416"/>
	<g>
		<polygon fill="#737A7F" points="507.599,179.053 498.576,196.262 486.367,196.262 476.06,186.305 475.931,186.305 
			470.705,196.262 458.46,196.262 467.503,179.053 479.619,179.053 489.988,189.08 490.113,189.08 495.402,179.053 		"/>
		<polygon fill="#737A7F" points="530.078,179.053 521.082,196.262 507.939,196.262 516.931,179.053 		"/>
		<polygon fill="#737A7F" points="580.472,179.053 557.003,196.262 542.845,196.262 534.814,179.053 547.708,179.053 
			551.507,191.309 551.585,191.309 566.427,179.053 		"/>
		<polygon fill="#737A7F" points="619.107,179.053 617.181,182.736 595.812,182.736 594.38,185.494 615.035,185.494 613.14,189.006 
			592.564,189.006 590.81,192.336 613.958,192.336 611.917,196.262 575.773,196.262 584.742,179.053 		"/>
		<path fill="#737A7F" d="M627.123,179.053h23.841c4.135,0,7.164,0.455,9.055,1.334c1.914,0.885,2.867,1.945,2.867,3.18
			c0,1.35-1.016,2.537-3.051,3.529c-2.01,1.002-5.242,1.662-9.676,1.936c2.609,0.873,5.748,3.281,9.416,7.23h-13.762
			c-1.139-1.238-2.488-2.607-4.027-4.078c-1.514-1.484-2.691-2.34-3.455-2.563c-0.766-0.246-1.699-0.369-2.785-0.369h-0.637
			l-3.635,7.01h-13.07L627.123,179.053z M636.558,186.057h2.421c4.117,0,6.762-0.074,7.975-0.229
			c1.197-0.158,2.08-0.414,2.688-0.789c0.584-0.379,0.887-0.723,0.887-1.09c0-0.424-0.348-0.764-1.051-1.018
			c-0.701-0.244-2.217-0.389-4.574-0.389h-6.541L636.558,186.057z"/>
		<path fill="#737A7F" d="M705.411,183.83l-12.127,0.283c-0.264-1.504-2.287-2.25-6.086-2.25c-1.521,0-2.707,0.137-3.525,0.406
			c-0.828,0.271-1.236,0.584-1.236,0.963c0,0.271,0.344,0.533,1.02,0.783c0.674,0.238,2.236,0.564,4.738,0.943
			c3.174,0.512,5.746,0.98,7.713,1.426c1.975,0.434,3.582,1.023,4.838,1.744c1.268,0.705,1.883,1.592,1.883,2.65
			c0,1.004-0.686,1.939-2.033,2.787c-1.348,0.875-3.332,1.582-5.906,2.164c-2.551,0.547-6.199,0.818-10.928,0.818
			c-6.676,0-11.391-0.5-14.168-1.557c-2.787-1.061-4.18-2.41-4.18-4.049v-0.395l12.197-0.35c0,1.068,0.588,1.82,1.734,2.281
			c1.158,0.434,2.746,0.65,4.785,0.65c2.037,0,3.598-0.186,4.686-0.549c1.074-0.357,1.607-0.789,1.607-1.252
			c0-0.348-0.336-0.656-1.023-0.957c-0.684-0.295-2.396-0.641-5.084-1.039c-6.127-0.924-10.006-1.777-11.625-2.539
			c-1.639-0.764-2.459-1.678-2.459-2.752c0-0.979,0.678-1.9,2.016-2.713c1.35-0.805,3.297-1.443,5.854-1.896
			c2.574-0.441,5.65-0.654,9.23-0.654C698.667,178.779,704.708,180.447,705.411,183.83"/>
		<polygon fill="#737A7F" points="728.854,179.053 719.841,196.262 706.724,196.262 715.729,179.053 		"/>
		<polygon fill="#737A7F" points="774.679,179.053 772.517,183.271 758.892,183.271 752.065,196.262 739.036,196.262 
			745.851,183.271 732.853,183.271 735.054,179.053 		"/>
		<polygon fill="#737A7F" points="821.364,179.053 801.175,189.754 797.804,196.262 784.741,196.262 788.187,189.631 
			775.624,179.053 789.241,179.053 795.64,185.414 806.507,179.053 		"/>
		<polygon fill="#737A7F" points="147.88,199.746 53.896,199.746 99.474,169.844 193.447,169.844 		"/>
	</g>
	<polygon fill="#EB2D2E" points="202.357,217.051 108.361,217.051 153.933,185.75 247.925,185.75 	"/>
	<g>
		<polygon fill="#24204D" points="133.716,98.739 115.607,151.777 94.009,151.777 109.482,111.266 109.142,111.266 78.05,151.777 
			58.947,151.777 55.291,111.162 55.009,111.162 42.97,151.777 21.382,151.777 39.265,98.739 71.029,98.739 74.207,132.344 
			74.419,132.344 101.033,98.739 		"/>
		<path fill="#24204D" d="M201.82,141.861c-3.406,3.82-7.832,6.578-13.328,8.254c-5.48,1.686-12.373,2.523-20.641,2.523
			c-12.008,0-20.541-1.699-25.621-5.129c-5.068-3.4-7.611-7.594-7.611-12.541c0-3.416,1.174-6.646,3.539-9.676
			c2.385-3.037,5.586-5.58,9.65-7.631c4.072-2.035,8.055-3.436,11.99-4.125c3.93-0.715,8.539-1.09,13.805-1.09
			c11.346,0,19.498,1.574,24.43,4.689c4.939,3.098,7.404,6.922,7.404,11.461c0,1.508-0.51,4.066-1.516,7.725h-46.547
			c0.635,5.117,4.33,7.697,11.063,7.697c4.547,0,8.188-1.184,10.941-3.498L201.82,141.861z M182.271,129.172
			c0.27-0.521,0.43-1.246,0.43-2.188c0-1.934-0.955-3.398-2.82-4.404c-1.867-0.984-4.154-1.479-6.893-1.479
			c-2.898,0-5.555,0.678-7.984,2.029c-2.412,1.342-4.264,3.381-5.502,6.041H182.271z"/>
		<path fill="#24204D" d="M261.5,113.344l-3.578,10.547h-12.133l-4.406,13.617c-0.4,0.586-0.604,1.174-0.604,1.809
			c0,1.721,1.85,2.576,5.529,2.576c1.123,0,3.512-0.238,7.211-0.719l-3.459,10.59c-7.082,0.602-12.264,0.908-15.521,0.908
			c-6.582,0-11.232-0.99-13.979-2.967c-2.73-1.994-4.1-4.125-4.1-6.488c0-0.754,0.537-2.818,1.672-6.156l4.395-13.17h-8.486
			l3.443-10.547h8.588l2.01-5.979l26.145-8.236l-4.744,14.216H261.5z"/>
		<path fill="#24204D" d="M320.332,113.615l-8.58,11.359c-1.762-0.25-3.389-0.389-4.809-0.389c-4.438,0-8.051,1.016-10.828,3.051
			c-2.789,2.029-4.951,5.275-6.445,9.736l-4.85,14.404h-23.395l12.926-38.459h21.869l-2.68,7.572l0.207,0.146
			c3.629-3.406,6.809-5.688,9.563-6.838c2.742-1.16,5.752-1.752,9.066-1.752C314.832,112.447,317.48,112.842,320.332,113.615"/>
		<path fill="#24204D" d="M356.421,112.447c10.867,0,18.781,1.752,23.77,5.215c4.996,3.482,7.49,7.561,7.49,12.219
			c0,3.541-1.428,7.141-4.291,10.813c-2.857,3.668-7.17,6.58-12.916,8.738c-5.738,2.141-12.824,3.207-21.205,3.207
			c-10.621,0-18.482-1.662-23.578-4.973c-5.078-3.326-7.615-7.449-7.615-12.408c0-3.873,1.518-7.627,4.578-11.244
			c3.037-3.627,7.43-6.457,13.182-8.502C341.595,113.479,348.458,112.447,356.421,112.447 M350.794,142.744
			c4.344,0,7.801-1.406,10.33-4.24c2.531-2.822,3.807-5.947,3.807-9.391c0-2.484-0.977-4.236-2.914-5.246
			c-1.951-0.992-4.082-1.498-6.424-1.498c-4.943,0-8.635,1.408-11.094,4.242c-2.457,2.836-3.668,5.732-3.668,8.686
			c0,2.135,0.949,3.896,2.883,5.318C345.621,142.023,347.988,142.744,350.794,142.744"/>
		<path fill="#24204D" d="M426.326,117.322c3.291-1.914,6.26-3.207,8.906-3.877c2.631-0.666,5.797-0.998,9.508-0.998
			c6.84,0,12.064,1.439,15.713,4.316c3.629,2.875,5.453,6.756,5.453,11.621c0,6.512-2.754,12.207-8.219,17.063
			c-5.492,4.846-12.408,7.271-20.758,7.271c-8.52,0-14.959-2.012-19.326-6.053l-6.711,19.771h-23.34l18.02-53.119h21.656l-1.1,3.857
			L426.326,117.322z M430.691,142.82c3.402,0,6.336-1.381,8.77-4.125c2.463-2.73,3.699-6.041,3.699-9.953
			c0-2.369-0.785-4.08-2.365-5.125c-1.605-1.041-3.473-1.57-5.617-1.57c-4.328,0-7.65,1.539-9.959,4.598
			c-2.33,3.064-3.473,6.201-3.473,9.404c0,2.283,0.895,3.965,2.711,5.09C426.275,142.252,428.365,142.82,430.691,142.82"/>
		<path fill="#24204D" d="M512.847,112.447c10.857,0,18.785,1.752,23.783,5.215c4.998,3.482,7.492,7.561,7.492,12.219
			c0,3.541-1.443,7.141-4.311,10.813c-2.867,3.668-7.152,6.58-12.904,8.738c-5.762,2.141-12.828,3.207-21.205,3.207
			c-10.623,0-18.492-1.662-23.578-4.973c-5.068-3.326-7.623-7.449-7.623-12.408c0-3.873,1.518-7.627,4.58-11.244
			c3.035-3.627,7.441-6.457,13.186-8.502C498.013,113.479,504.876,112.447,512.847,112.447 M507.203,142.744
			c4.355,0,7.803-1.406,10.354-4.24c2.537-2.822,3.813-5.947,3.813-9.391c0-2.484-0.965-4.236-2.918-5.246
			c-1.955-0.992-4.084-1.498-6.416-1.498c-4.963,0-8.666,1.408-11.102,4.242c-2.449,2.836-3.68,5.732-3.68,8.686
			c0,2.135,0.977,3.896,2.895,5.318C502.068,142.023,504.423,142.744,507.203,142.744"/>
		<polygon fill="#24204D" points="591.292,98.739 573.33,151.777 549.867,151.777 567.832,98.739 		"/>
		<path fill="#24204D" d="M625.4,113.318l-13.008,38.459h-23.477l12.998-38.459H625.4z M630.332,98.739l-3.428,10.148h-23.336
			l3.285-10.148H630.332z"/>
		<path fill="#24204D" d="M679.505,113.344l-3.594,10.547h-12.139l-4.412,13.617c-0.402,0.586-0.6,1.174-0.6,1.809
			c0,1.721,1.854,2.576,5.533,2.576c1.119,0,3.523-0.238,7.225-0.719l-3.449,10.59c-7.109,0.602-12.279,0.908-15.537,0.908
			c-6.59,0-11.254-0.99-13.982-2.967c-2.748-1.994-4.097-4.125-4.097-6.488c0-0.754,0.533-2.818,1.674-6.156l4.41-13.17h-8.505
			l3.445-10.547h8.58l2.004-5.979l26.172-8.236l-4.766,14.216H679.505z"/>
		<path fill="#24204D" d="M688.458,123.818c1.408-3.621,4.615-6.43,9.652-8.398c5.018-1.977,12.781-2.973,23.287-2.973
			c11.975,0,20.051,0.957,24.225,2.854c4.172,1.895,6.262,4.654,6.262,8.285c0,2.404-1.027,6.379-3.078,11.916
			c-1.982,5.248-2.955,8.889-2.955,10.953c0,1.736,0.518,3.506,1.51,5.322h-22.754c-0.49-1.527-0.762-3-0.762-4.383
			c-6.154,3.492-12.992,5.244-20.541,5.244c-7.654,0-13.191-1.129-16.576-3.4c-3.369-2.273-5.066-4.898-5.066-7.896
			c0-3.402,1.512-6.018,4.521-7.791c3.008-1.783,6.729-2.996,11.139-3.643c4.402-0.637,10.395-1.215,17.977-1.695
			c6.818-0.445,11.334-0.891,13.598-1.334c0.461-1.127,0.693-2.002,0.693-2.609c0-0.965-0.787-1.723-2.354-2.314
			c-1.563-0.57-3.594-0.854-6.133-0.854c-2.703,0-4.895,0.254-6.563,0.807c-1.637,0.535-3.111,1.664-4.391,3.391L688.458,123.818z
			 M726.272,134.486c-10.816,1.154-17.174,2.158-19.045,3.021c-1.871,0.902-2.814,1.924-2.814,3.125
			c0,1.229,0.672,2.209,2.018,2.938c1.346,0.717,3.064,1.066,5.205,1.066c2.959,0,5.885-0.746,8.797-2.281
			C723.358,140.842,725.31,138.215,726.272,134.486"/>
		<path fill="#24204D" d="M790.774,119.277c6.381-4.549,14.188-6.83,23.436-6.83c5.523,0,9.646,0.891,12.393,2.682
			c2.746,1.773,4.127,3.943,4.127,6.525c0,1.539-0.783,4.6-2.33,9.135l-6.994,20.988h-23.398l6.033-17.869
			c1.447-4.373,2.15-6.885,2.15-7.508c0-2.107-1.5-3.158-4.543-3.158c-3.453,0-6.451,1.014-9.027,3.057
			c-2.559,2.033-4.492,4.959-5.764,8.801l-5.689,16.678h-23.551l13.084-38.459h21.799l-1.982,5.809L790.774,119.277z"/>
		<polygon fill="#24204D" points="298.919,199.746 204.935,199.746 250.507,169.844 344.5,169.844 		"/>
	</g>
	<rect x="434.164" y="169.689" fill="#EB2D2E" width="387.281" height="3.236"/>
</g>
</svg>
